<svg xmlns="http://www.w3.org/2000/svg" xmlns:xlink="http://www.w3.org/1999/xlink" width="1919.5" height="86.69" viewBox="0 0 1919.5 86.69">
  <defs>
    <linearGradient id="linear-gradient" x1="0.204" y1="-2.091" x2="0.809" y2="4.606" gradientUnits="objectBoundingBox">
      <stop offset="0" stop-color="#97e6ce"/>
      <stop offset="0.381" stop-color="#95c6ff"/>
      <stop offset="1" stop-color="#97e6ce"/>
    </linearGradient>
    <linearGradient id="linear-gradient-2" x1="0.204" y1="-2.091" x2="0.809" y2="4.606" gradientUnits="objectBoundingBox">
      <stop offset="0" stop-color="#43b995"/>
      <stop offset="0.498" stop-color="#5fa1ee"/>
      <stop offset="1" stop-color="#43b995"/>
    </linearGradient>
    <clipPath id="clip-path">
      <rect id="Rectangle_66" data-name="Rectangle 66" width="1919.5" height="64.589" fill="none"/>
    </clipPath>
    <clipPath id="clip-path-3">
      <rect id="Rectangle_65" data-name="Rectangle 65" width="1919.5" height="26.69" fill="url(#linear-gradient)"/>
    </clipPath>
  </defs>
  <g id="bg-wave" transform="translate(1929 -3351.31)">
    <g id="Group_227" data-name="Group 227" transform="translate(-1929 1266)">
      <g id="Group_25" data-name="Group 25" transform="translate(0 2090.31)">
        <g id="Group_24" data-name="Group 24" clip-path="url(#clip-path)">
          <path id="Path_5" data-name="Path 5" d="M1812.841,15.238c-26.911.013-40.661-3.882-53.976-7.686-13.349-3.8-26.264-7.5-52.683-7.516-26.414.013-39.33,3.72-52.675,7.516-13.315,3.8-27.06,7.7-53.968,7.686-26.908.013-40.656-3.882-53.968-7.686-13.349-3.8-26.264-7.5-52.678-7.516-26.414.013-39.33,3.72-52.675,7.516-13.315,3.8-27.06,7.7-53.968,7.686-26.906.013-40.653-3.882-53.966-7.686-13.346-3.8-26.262-7.5-52.676-7.516-26.408.013-39.322,3.72-52.668,7.516-13.31,3.8-27.055,7.7-53.958,7.686-26.908.013-40.653-3.882-53.966-7.686-13.348-3.8-26.262-7.5-52.675-7.516-26.414.013-39.327,3.72-52.676,7.516-13.312,3.8-27.06,7.7-53.968,7.686-26.906.013-40.653-3.882-53.966-7.686-13.346-3.8-26.262-7.5-52.676-7.516-26.411.013-39.324,3.72-52.67,7.516-13.312,3.8-27.057,7.7-53.963,7.686-26.906.013-40.651-3.882-53.963-7.686C679.114,3.755,666.2.048,639.79.035c-26.414.013-39.324,3.72-52.67,7.516-13.312,3.8-27.057,7.7-53.963,7.686-26.906.013-40.651-3.882-53.963-7.686-13.346-3.8-26.259-7.5-52.67-7.516-26.411.013-39.324,3.72-52.67,7.516-13.31,3.8-27.055,7.7-53.96,7.686-26.906.013-40.653-3.882-53.966-7.686-13.346-3.8-26.259-7.5-52.673-7.516-26.411.013-39.324,3.72-52.67,7.516-13.31,3.8-27.055,7.7-53.958,7.686-26.9.013-40.648-3.882-53.958-7.686C39.322,3.755,26.411.048,0,.035V64.59H1919.5V.035c-26.419.013-39.335,3.72-52.683,7.516-13.317,3.8-27.065,7.7-53.976,7.686" transform="translate(0 -0.001)" fill="#fff"/>
        </g>
      </g>
      <g id="Group_228" data-name="Group 228" transform="translate(0 2107.411)">
        <g id="Group_24-2" data-name="Group 24" clip-path="url(#clip-path)">
          <path id="Path_5-2" data-name="Path 5" d="M1812.841,15.238c-26.911.013-40.661-3.882-53.976-7.686-13.349-3.8-26.264-7.5-52.683-7.516-26.414.013-39.33,3.72-52.675,7.516-13.315,3.8-27.06,7.7-53.968,7.686-26.908.013-40.656-3.882-53.968-7.686-13.349-3.8-26.264-7.5-52.678-7.516-26.414.013-39.33,3.72-52.675,7.516-13.315,3.8-27.06,7.7-53.968,7.686-26.906.013-40.653-3.882-53.966-7.686-13.346-3.8-26.262-7.5-52.676-7.516-26.408.013-39.322,3.72-52.668,7.516-13.31,3.8-27.055,7.7-53.958,7.686-26.908.013-40.653-3.882-53.966-7.686-13.348-3.8-26.262-7.5-52.675-7.516-26.414.013-39.327,3.72-52.676,7.516-13.312,3.8-27.06,7.7-53.968,7.686-26.906.013-40.653-3.882-53.966-7.686-13.346-3.8-26.262-7.5-52.676-7.516-26.411.013-39.324,3.72-52.67,7.516-13.312,3.8-27.057,7.7-53.963,7.686-26.906.013-40.651-3.882-53.963-7.686C679.114,3.755,666.2.048,639.79.035c-26.414.013-39.324,3.72-52.67,7.516-13.312,3.8-27.057,7.7-53.963,7.686-26.906.013-40.651-3.882-53.963-7.686-13.346-3.8-26.259-7.5-52.67-7.516-26.411.013-39.324,3.72-52.67,7.516-13.31,3.8-27.055,7.7-53.96,7.686-26.906.013-40.653-3.882-53.966-7.686-13.346-3.8-26.259-7.5-52.673-7.516-26.411.013-39.324,3.72-52.67,7.516-13.31,3.8-27.055,7.7-53.958,7.686-26.9.013-40.648-3.882-53.958-7.686C39.322,3.755,26.411.048,0,.035V64.59H1919.5V.035c-26.419.013-39.335,3.72-52.683,7.516-13.317,3.8-27.065,7.7-53.976,7.686" transform="translate(0 -0.001)" fill="#fff"/>
        </g>
      </g>
      <g id="Group_23" data-name="Group 23" transform="translate(0 2085.31)">
        <g id="Group_20" data-name="Group 20">
          <g id="Group_19" data-name="Group 19" clip-path="url(#clip-path-3)">
            <path id="Path_4" data-name="Path 4" d="M0,6.673A133.812,133.812,0,0,1,29.962,9.615a125.466,125.466,0,0,1,15.8,4.773c7.426,2.694,14.772,5.785,24.271,8.211s21.045,4.1,36.587,4.092a149.382,149.382,0,0,0,33.348-3.313,139.053,139.053,0,0,0,17.466-5.256c7.8-2.848,14.631-5.693,23-7.82s18.372-3.622,32.82-3.628a133.88,133.88,0,0,1,29.967,2.943,125.64,125.64,0,0,1,15.805,4.773c7.426,2.694,14.772,5.785,24.274,8.212s21.048,4.1,36.592,4.09a149.4,149.4,0,0,0,33.348-3.313A139.139,139.139,0,0,0,370.7,18.121c7.8-2.848,14.633-5.693,23-7.82s18.372-3.622,32.818-3.628a133.863,133.863,0,0,1,29.967,2.943,125.642,125.642,0,0,1,15.8,4.773c7.426,2.694,14.772,5.785,24.271,8.212s21.05,4.1,36.592,4.09a149.382,149.382,0,0,0,33.348-3.313,139.052,139.052,0,0,0,17.466-5.256c7.8-2.848,14.633-5.693,23-7.82s18.375-3.622,32.82-3.628a133.864,133.864,0,0,1,29.967,2.943,125.645,125.645,0,0,1,15.8,4.773c7.424,2.694,14.77,5.785,24.271,8.211s21.047,4.1,36.59,4.092a149.424,149.424,0,0,0,33.351-3.313,139.186,139.186,0,0,0,17.466-5.256c7.8-2.848,14.633-5.693,23-7.82s18.372-3.622,32.82-3.628a133.845,133.845,0,0,1,29.967,2.943,125.545,125.545,0,0,1,15.808,4.773c7.426,2.694,14.772,5.785,24.274,8.212s21.048,4.1,36.592,4.09a149.407,149.407,0,0,0,33.351-3.313,139.092,139.092,0,0,0,17.468-5.256c7.8-2.848,14.633-5.693,23-7.82s18.377-3.622,32.825-3.628a133.864,133.864,0,0,1,29.967,2.943,125.652,125.652,0,0,1,15.8,4.773c7.426,2.694,14.772,5.785,24.274,8.212s21.048,4.1,36.593,4.09a149.383,149.383,0,0,0,33.348-3.313,139.006,139.006,0,0,0,17.463-5.256c7.8-2.848,14.633-5.693,23-7.82s18.372-3.622,32.818-3.628a133.846,133.846,0,0,1,29.967,2.943,125.561,125.561,0,0,1,15.808,4.773c7.426,2.694,14.772,5.785,24.274,8.212s21.048,4.1,36.593,4.09a149.41,149.41,0,0,0,33.351-3.313,139.23,139.23,0,0,0,17.468-5.256c7.8-2.848,14.633-5.693,23-7.82s18.375-3.622,32.823-3.628a133.913,133.913,0,0,1,29.972,2.943,125.641,125.641,0,0,1,15.805,4.773c7.426,2.694,14.775,5.785,24.276,8.212s21.05,4.1,36.6,4.09a149.406,149.406,0,0,0,33.351-3.313,139.234,139.234,0,0,0,17.469-5.256c7.8-2.848,14.633-5.693,23-7.82s18.377-3.622,32.825-3.628a133.894,133.894,0,0,1,29.972,2.943,125.729,125.729,0,0,1,15.81,4.773c7.426,2.694,14.775,5.785,24.276,8.212s21.053,4.1,36.6,4.09a149.417,149.417,0,0,0,33.353-3.313,139.018,139.018,0,0,0,17.471-5.256c7.8-2.848,14.636-5.693,23-7.82s18.377-3.622,32.828-3.628V0a149.433,149.433,0,0,0-33.353,3.313,139.146,139.146,0,0,0-17.471,5.256c-7.8,2.848-14.636,5.693-23,7.82s-18.377,3.622-32.828,3.628a133.937,133.937,0,0,1-29.975-2.943,125.557,125.557,0,0,1-15.808-4.773c-7.429-2.694-14.775-5.785-24.279-8.212s-21.05-4.1-36.6-4.09a149.408,149.408,0,0,0-33.351,3.313,139.106,139.106,0,0,0-17.468,5.256c-7.8,2.848-14.633,5.693-23,7.82s-18.375,3.622-32.823,3.628a133.886,133.886,0,0,1-29.97-2.943,125.557,125.557,0,0,1-15.808-4.773c-7.426-2.694-14.775-5.785-24.274-8.212s-21.05-4.1-36.6-4.09a149.421,149.421,0,0,0-33.35,3.313,139.058,139.058,0,0,0-17.466,5.256c-7.8,2.848-14.633,5.693-23,7.82s-18.375,3.622-32.823,3.628a133.862,133.862,0,0,1-29.967-2.943,125.541,125.541,0,0,1-15.807-4.773c-7.426-2.694-14.772-5.785-24.274-8.211S1295.154-.007,1279.609,0a149.374,149.374,0,0,0-33.345,3.313A139.049,139.049,0,0,0,1228.8,8.569c-7.8,2.848-14.633,5.693-23,7.82s-18.372,3.622-32.82,3.628a133.879,133.879,0,0,1-29.967-2.943,125.635,125.635,0,0,1-15.805-4.773c-7.426-2.694-14.772-5.785-24.274-8.211S1081.887-.007,1066.342,0a149.408,149.408,0,0,0-33.351,3.313,139.1,139.1,0,0,0-17.468,5.256c-7.8,2.848-14.633,5.693-23,7.82s-18.377,3.622-32.825,3.628a133.863,133.863,0,0,1-29.967-2.943,125.507,125.507,0,0,1-15.8-4.773c-7.429-2.694-14.775-5.785-24.274-8.211S868.6-.007,853.057,0a149.381,149.381,0,0,0-33.348,3.313,139.052,139.052,0,0,0-17.466,5.256c-7.8,2.848-14.633,5.693-23,7.82s-18.375,3.622-32.823,3.628a133.855,133.855,0,0,1-29.965-2.943,125.639,125.639,0,0,1-15.8-4.773c-7.426-2.694-14.772-5.785-24.271-8.211S655.333-.007,639.788,0a149.358,149.358,0,0,0-33.346,3.313,139.232,139.232,0,0,0-17.468,5.256c-7.8,2.848-14.631,5.693-23,7.82s-18.372,3.622-32.82,3.628a133.837,133.837,0,0,1-29.965-2.943,125.508,125.508,0,0,1-15.8-4.773c-7.426-2.694-14.772-5.785-24.274-8.211S442.066-.007,426.521,0a149.374,149.374,0,0,0-33.345,3.313A139.054,139.054,0,0,0,375.71,8.569c-7.8,2.848-14.633,5.693-23,7.82s-18.375,3.622-32.82,3.628a133.863,133.863,0,0,1-29.967-2.943,125.64,125.64,0,0,1-15.8-4.773c-7.426-2.694-14.775-5.785-24.274-8.211S228.8-.007,213.254,0a149.382,149.382,0,0,0-33.348,3.313A139.053,139.053,0,0,0,162.44,8.569c-7.8,2.848-14.631,5.693-23,7.82s-18.372,3.622-32.82,3.628a133.812,133.812,0,0,1-29.962-2.943,125.6,125.6,0,0,1-15.8-4.773C53.433,9.609,46.086,6.517,36.587,4.092S15.542-.007,0,0Z" transform="translate(0 0)" fill="url(#linear-gradient)"/>
          </g>
        </g>
        <g id="Group_21" data-name="Group 21" transform="translate(0 30)" opacity="0.5">
          <g id="Group_19-2" data-name="Group 19" clip-path="url(#clip-path-3)">
            <path id="Path_4-2" data-name="Path 4" d="M0,6.673A133.812,133.812,0,0,1,29.962,9.615a125.466,125.466,0,0,1,15.8,4.773c7.426,2.694,14.772,5.785,24.271,8.211s21.045,4.1,36.587,4.092a149.382,149.382,0,0,0,33.348-3.313,139.053,139.053,0,0,0,17.466-5.256c7.8-2.848,14.631-5.693,23-7.82s18.372-3.622,32.82-3.628a133.88,133.88,0,0,1,29.967,2.943,125.64,125.64,0,0,1,15.805,4.773c7.426,2.694,14.772,5.785,24.274,8.212s21.048,4.1,36.592,4.09a149.4,149.4,0,0,0,33.348-3.313A139.139,139.139,0,0,0,370.7,18.121c7.8-2.848,14.633-5.693,23-7.82s18.372-3.622,32.818-3.628a133.863,133.863,0,0,1,29.967,2.943,125.642,125.642,0,0,1,15.8,4.773c7.426,2.694,14.772,5.785,24.271,8.212s21.05,4.1,36.592,4.09a149.382,149.382,0,0,0,33.348-3.313,139.052,139.052,0,0,0,17.466-5.256c7.8-2.848,14.633-5.693,23-7.82s18.375-3.622,32.82-3.628a133.864,133.864,0,0,1,29.967,2.943,125.645,125.645,0,0,1,15.8,4.773c7.424,2.694,14.77,5.785,24.271,8.211s21.047,4.1,36.59,4.092a149.424,149.424,0,0,0,33.351-3.313,139.186,139.186,0,0,0,17.466-5.256c7.8-2.848,14.633-5.693,23-7.82s18.372-3.622,32.82-3.628a133.845,133.845,0,0,1,29.967,2.943,125.545,125.545,0,0,1,15.808,4.773c7.426,2.694,14.772,5.785,24.274,8.212s21.048,4.1,36.592,4.09a149.407,149.407,0,0,0,33.351-3.313,139.092,139.092,0,0,0,17.468-5.256c7.8-2.848,14.633-5.693,23-7.82s18.377-3.622,32.825-3.628a133.864,133.864,0,0,1,29.967,2.943,125.652,125.652,0,0,1,15.8,4.773c7.426,2.694,14.772,5.785,24.274,8.212s21.048,4.1,36.593,4.09a149.383,149.383,0,0,0,33.348-3.313,139.006,139.006,0,0,0,17.463-5.256c7.8-2.848,14.633-5.693,23-7.82s18.372-3.622,32.818-3.628a133.846,133.846,0,0,1,29.967,2.943,125.561,125.561,0,0,1,15.808,4.773c7.426,2.694,14.772,5.785,24.274,8.212s21.048,4.1,36.593,4.09a149.41,149.41,0,0,0,33.351-3.313,139.23,139.23,0,0,0,17.468-5.256c7.8-2.848,14.633-5.693,23-7.82s18.375-3.622,32.823-3.628a133.913,133.913,0,0,1,29.972,2.943,125.641,125.641,0,0,1,15.805,4.773c7.426,2.694,14.775,5.785,24.276,8.212s21.05,4.1,36.6,4.09a149.406,149.406,0,0,0,33.351-3.313,139.234,139.234,0,0,0,17.469-5.256c7.8-2.848,14.633-5.693,23-7.82s18.377-3.622,32.825-3.628a133.894,133.894,0,0,1,29.972,2.943,125.729,125.729,0,0,1,15.81,4.773c7.426,2.694,14.775,5.785,24.276,8.212s21.053,4.1,36.6,4.09a149.417,149.417,0,0,0,33.353-3.313,139.018,139.018,0,0,0,17.471-5.256c7.8-2.848,14.636-5.693,23-7.82s18.377-3.622,32.828-3.628V0a149.433,149.433,0,0,0-33.353,3.313,139.146,139.146,0,0,0-17.471,5.256c-7.8,2.848-14.636,5.693-23,7.82s-18.377,3.622-32.828,3.628a133.937,133.937,0,0,1-29.975-2.943,125.557,125.557,0,0,1-15.808-4.773c-7.429-2.694-14.775-5.785-24.279-8.212s-21.05-4.1-36.6-4.09a149.408,149.408,0,0,0-33.351,3.313,139.106,139.106,0,0,0-17.468,5.256c-7.8,2.848-14.633,5.693-23,7.82s-18.375,3.622-32.823,3.628a133.886,133.886,0,0,1-29.97-2.943,125.557,125.557,0,0,1-15.808-4.773c-7.426-2.694-14.775-5.785-24.274-8.212s-21.05-4.1-36.6-4.09a149.421,149.421,0,0,0-33.35,3.313,139.058,139.058,0,0,0-17.466,5.256c-7.8,2.848-14.633,5.693-23,7.82s-18.375,3.622-32.823,3.628a133.862,133.862,0,0,1-29.967-2.943,125.541,125.541,0,0,1-15.807-4.773c-7.426-2.694-14.772-5.785-24.274-8.211S1295.154-.007,1279.609,0a149.374,149.374,0,0,0-33.345,3.313A139.049,139.049,0,0,0,1228.8,8.569c-7.8,2.848-14.633,5.693-23,7.82s-18.372,3.622-32.82,3.628a133.879,133.879,0,0,1-29.967-2.943,125.635,125.635,0,0,1-15.805-4.773c-7.426-2.694-14.772-5.785-24.274-8.211S1081.887-.007,1066.342,0a149.408,149.408,0,0,0-33.351,3.313,139.1,139.1,0,0,0-17.468,5.256c-7.8,2.848-14.633,5.693-23,7.82s-18.377,3.622-32.825,3.628a133.863,133.863,0,0,1-29.967-2.943,125.507,125.507,0,0,1-15.8-4.773c-7.429-2.694-14.775-5.785-24.274-8.211S868.6-.007,853.057,0a149.381,149.381,0,0,0-33.348,3.313,139.052,139.052,0,0,0-17.466,5.256c-7.8,2.848-14.633,5.693-23,7.82s-18.375,3.622-32.823,3.628a133.855,133.855,0,0,1-29.965-2.943,125.639,125.639,0,0,1-15.8-4.773c-7.426-2.694-14.772-5.785-24.271-8.211S655.333-.007,639.788,0a149.358,149.358,0,0,0-33.346,3.313,139.232,139.232,0,0,0-17.468,5.256c-7.8,2.848-14.631,5.693-23,7.82s-18.372,3.622-32.82,3.628a133.837,133.837,0,0,1-29.965-2.943,125.508,125.508,0,0,1-15.8-4.773c-7.426-2.694-14.772-5.785-24.274-8.211S442.066-.007,426.521,0a149.374,149.374,0,0,0-33.345,3.313A139.054,139.054,0,0,0,375.71,8.569c-7.8,2.848-14.633,5.693-23,7.82s-18.375,3.622-32.82,3.628a133.863,133.863,0,0,1-29.967-2.943,125.64,125.64,0,0,1-15.8-4.773c-7.426-2.694-14.775-5.785-24.274-8.211S228.8-.007,213.254,0a149.382,149.382,0,0,0-33.348,3.313A139.053,139.053,0,0,0,162.44,8.569c-7.8,2.848-14.631,5.693-23,7.82s-18.372,3.622-32.82,3.628a133.812,133.812,0,0,1-29.962-2.943,125.6,125.6,0,0,1-15.8-4.773C53.433,9.609,46.086,6.517,36.587,4.092S15.542-.007,0,0Z" transform="translate(0 0)" fill="url(#linear-gradient-2)"/>
          </g>
        </g>
        <g id="Group_22" data-name="Group 22" transform="translate(0 60)" opacity="0.3">
          <g id="Group_19-3" data-name="Group 19" clip-path="url(#clip-path-3)">
            <path id="Path_4-3" data-name="Path 4" d="M0,6.673A133.812,133.812,0,0,1,29.962,9.615a125.466,125.466,0,0,1,15.8,4.773c7.426,2.694,14.772,5.785,24.271,8.211s21.045,4.1,36.587,4.092a149.382,149.382,0,0,0,33.348-3.313,139.053,139.053,0,0,0,17.466-5.256c7.8-2.848,14.631-5.693,23-7.82s18.372-3.622,32.82-3.628a133.88,133.88,0,0,1,29.967,2.943,125.64,125.64,0,0,1,15.805,4.773c7.426,2.694,14.772,5.785,24.274,8.212s21.048,4.1,36.592,4.09a149.4,149.4,0,0,0,33.348-3.313A139.139,139.139,0,0,0,370.7,18.121c7.8-2.848,14.633-5.693,23-7.82s18.372-3.622,32.818-3.628a133.863,133.863,0,0,1,29.967,2.943,125.642,125.642,0,0,1,15.8,4.773c7.426,2.694,14.772,5.785,24.271,8.212s21.05,4.1,36.592,4.09a149.382,149.382,0,0,0,33.348-3.313,139.052,139.052,0,0,0,17.466-5.256c7.8-2.848,14.633-5.693,23-7.82s18.375-3.622,32.82-3.628a133.864,133.864,0,0,1,29.967,2.943,125.645,125.645,0,0,1,15.8,4.773c7.424,2.694,14.77,5.785,24.271,8.211s21.047,4.1,36.59,4.092a149.424,149.424,0,0,0,33.351-3.313,139.186,139.186,0,0,0,17.466-5.256c7.8-2.848,14.633-5.693,23-7.82s18.372-3.622,32.82-3.628a133.845,133.845,0,0,1,29.967,2.943,125.545,125.545,0,0,1,15.808,4.773c7.426,2.694,14.772,5.785,24.274,8.212s21.048,4.1,36.592,4.09a149.407,149.407,0,0,0,33.351-3.313,139.092,139.092,0,0,0,17.468-5.256c7.8-2.848,14.633-5.693,23-7.82s18.377-3.622,32.825-3.628a133.864,133.864,0,0,1,29.967,2.943,125.652,125.652,0,0,1,15.8,4.773c7.426,2.694,14.772,5.785,24.274,8.212s21.048,4.1,36.593,4.09a149.383,149.383,0,0,0,33.348-3.313,139.006,139.006,0,0,0,17.463-5.256c7.8-2.848,14.633-5.693,23-7.82s18.372-3.622,32.818-3.628a133.846,133.846,0,0,1,29.967,2.943,125.561,125.561,0,0,1,15.808,4.773c7.426,2.694,14.772,5.785,24.274,8.212s21.048,4.1,36.593,4.09a149.41,149.41,0,0,0,33.351-3.313,139.23,139.23,0,0,0,17.468-5.256c7.8-2.848,14.633-5.693,23-7.82s18.375-3.622,32.823-3.628a133.913,133.913,0,0,1,29.972,2.943,125.641,125.641,0,0,1,15.805,4.773c7.426,2.694,14.775,5.785,24.276,8.212s21.05,4.1,36.6,4.09a149.406,149.406,0,0,0,33.351-3.313,139.234,139.234,0,0,0,17.469-5.256c7.8-2.848,14.633-5.693,23-7.82s18.377-3.622,32.825-3.628a133.894,133.894,0,0,1,29.972,2.943,125.729,125.729,0,0,1,15.81,4.773c7.426,2.694,14.775,5.785,24.276,8.212s21.053,4.1,36.6,4.09a149.417,149.417,0,0,0,33.353-3.313,139.018,139.018,0,0,0,17.471-5.256c7.8-2.848,14.636-5.693,23-7.82s18.377-3.622,32.828-3.628V0a149.433,149.433,0,0,0-33.353,3.313,139.146,139.146,0,0,0-17.471,5.256c-7.8,2.848-14.636,5.693-23,7.82s-18.377,3.622-32.828,3.628a133.937,133.937,0,0,1-29.975-2.943,125.557,125.557,0,0,1-15.808-4.773c-7.429-2.694-14.775-5.785-24.279-8.212s-21.05-4.1-36.6-4.09a149.408,149.408,0,0,0-33.351,3.313,139.106,139.106,0,0,0-17.468,5.256c-7.8,2.848-14.633,5.693-23,7.82s-18.375,3.622-32.823,3.628a133.886,133.886,0,0,1-29.97-2.943,125.557,125.557,0,0,1-15.808-4.773c-7.426-2.694-14.775-5.785-24.274-8.212s-21.05-4.1-36.6-4.09a149.421,149.421,0,0,0-33.35,3.313,139.058,139.058,0,0,0-17.466,5.256c-7.8,2.848-14.633,5.693-23,7.82s-18.375,3.622-32.823,3.628a133.862,133.862,0,0,1-29.967-2.943,125.541,125.541,0,0,1-15.807-4.773c-7.426-2.694-14.772-5.785-24.274-8.211S1295.154-.007,1279.609,0a149.374,149.374,0,0,0-33.345,3.313A139.049,139.049,0,0,0,1228.8,8.569c-7.8,2.848-14.633,5.693-23,7.82s-18.372,3.622-32.82,3.628a133.879,133.879,0,0,1-29.967-2.943,125.635,125.635,0,0,1-15.805-4.773c-7.426-2.694-14.772-5.785-24.274-8.211S1081.887-.007,1066.342,0a149.408,149.408,0,0,0-33.351,3.313,139.1,139.1,0,0,0-17.468,5.256c-7.8,2.848-14.633,5.693-23,7.82s-18.377,3.622-32.825,3.628a133.863,133.863,0,0,1-29.967-2.943,125.507,125.507,0,0,1-15.8-4.773c-7.429-2.694-14.775-5.785-24.274-8.211S868.6-.007,853.057,0a149.381,149.381,0,0,0-33.348,3.313,139.052,139.052,0,0,0-17.466,5.256c-7.8,2.848-14.633,5.693-23,7.82s-18.375,3.622-32.823,3.628a133.855,133.855,0,0,1-29.965-2.943,125.639,125.639,0,0,1-15.8-4.773c-7.426-2.694-14.772-5.785-24.271-8.211S655.333-.007,639.788,0a149.358,149.358,0,0,0-33.346,3.313,139.232,139.232,0,0,0-17.468,5.256c-7.8,2.848-14.631,5.693-23,7.82s-18.372,3.622-32.82,3.628a133.837,133.837,0,0,1-29.965-2.943,125.508,125.508,0,0,1-15.8-4.773c-7.426-2.694-14.772-5.785-24.274-8.211S442.066-.007,426.521,0a149.374,149.374,0,0,0-33.345,3.313A139.054,139.054,0,0,0,375.71,8.569c-7.8,2.848-14.633,5.693-23,7.82s-18.375,3.622-32.82,3.628a133.863,133.863,0,0,1-29.967-2.943,125.64,125.64,0,0,1-15.8-4.773c-7.426-2.694-14.775-5.785-24.274-8.211S228.8-.007,213.254,0a149.382,149.382,0,0,0-33.348,3.313A139.053,139.053,0,0,0,162.44,8.569c-7.8,2.848-14.631,5.693-23,7.82s-18.372,3.622-32.82,3.628a133.812,133.812,0,0,1-29.962-2.943,125.6,125.6,0,0,1-15.8-4.773C53.433,9.609,46.086,6.517,36.587,4.092S15.542-.007,0,0Z" transform="translate(0 0)" fill="url(#linear-gradient-2)"/>
          </g>
        </g>
      </g>
    </g>
  </g>
</svg>
