<svg xmlns="http://www.w3.org/2000/svg" xmlns:xlink="http://www.w3.org/1999/xlink" width="1428.551" height="384.206" viewBox="0 0 1428.551 384.206">
  <defs>
    <linearGradient id="linear-gradient" x1="0.5" y1="1.164" x2="0.5" y2="0.348" gradientUnits="objectBoundingBox">
      <stop offset="0" stop-color="#fff"/>
      <stop offset="0.014" stop-color="#08539f"/>
      <stop offset="1" stop-color="#436e70"/>
    </linearGradient>
    <linearGradient id="linear-gradient-2" x1="12.892" y1="0.966" x2="12.892" y2="0.394" gradientUnits="objectBoundingBox">
      <stop offset="0.003" stop-color="#08539f"/>
      <stop offset="1" stop-color="#3182a2"/>
    </linearGradient>
    <linearGradient id="linear-gradient-3" x1="31.041" y1="-10.893" x2="-16.244" y2="6.48" gradientUnits="objectBoundingBox">
      <stop offset="0" stop-color="#279878"/>
      <stop offset="1" stop-color="#436e70"/>
    </linearGradient>
    <linearGradient id="linear-gradient-4" x1="0.512" y1="-0.26" x2="0.498" y2="1.218" xlink:href="#linear-gradient-3"/>
    <linearGradient id="linear-gradient-5" x1="0.5" y1="0.696" x2="0.5" y2="-0.479" gradientUnits="objectBoundingBox">
      <stop offset="0" stop-color="#fffac6"/>
      <stop offset="0.472" stop-color="#fcdfa4"/>
    </linearGradient>
    <linearGradient id="linear-gradient-6" x1="0.5" y1="0.613" x2="0.5" y2="-0.261" xlink:href="#linear-gradient-5"/>
    <linearGradient id="linear-gradient-7" x1="147.747" y1="0.696" x2="147.747" y2="-0.479" xlink:href="#linear-gradient-5"/>
    <linearGradient id="linear-gradient-8" x1="145.902" y1="0.613" x2="145.902" y2="-0.261" xlink:href="#linear-gradient-5"/>
    <linearGradient id="linear-gradient-9" x1="0.5" y1="0.68" x2="0.5" y2="-0.244" xlink:href="#linear-gradient-5"/>
    <linearGradient id="linear-gradient-10" x1="-47.578" y1="-44.169" x2="-47.578" y2="-46.216" gradientUnits="objectBoundingBox">
      <stop offset="0" stop-color="#fff"/>
      <stop offset="0.472" stop-color="#fcdfa4"/>
    </linearGradient>
    <linearGradient id="linear-gradient-11" x1="6.953" y1="29.432" x2="6.953" y2="27.457" xlink:href="#linear-gradient-10"/>
    <linearGradient id="linear-gradient-12" x1="0.5" y1="1.366" x2="0.5" y2="-0.651" xlink:href="#linear-gradient-10"/>
    <linearGradient id="linear-gradient-17" y1="0.5" x2="1" y2="0.5" gradientUnits="objectBoundingBox">
      <stop offset="0.156" stop-color="#eb5050"/>
      <stop offset="1" stop-color="#e09461"/>
    </linearGradient>
    <linearGradient id="linear-gradient-23" x1="0.5" y1="0.902" x2="0.5" y2="0.372" gradientUnits="objectBoundingBox">
      <stop offset="0" stop-color="#018878"/>
      <stop offset="1" stop-color="#439270"/>
    </linearGradient>
    <linearGradient id="linear-gradient-25" x1="0.5" y1="1.092" x2="0.5" y2="0.562" xlink:href="#linear-gradient-23"/>
  </defs>
  <g id="footer-vision-end" transform="translate(-20.102 -49.302)">
    <g id="圖層_1" data-name="圖層 1">
      <path id="Path_104" data-name="Path 104" d="M1239.094,210.773q7.789,5.01,15.171,10.745a224.934,224.934,0,0,1,75.656,108.815c-39.119,15.736-82.217,2.825-123.056-6.11-25.173-5.508-50.6-9.45-76.015-13.39-41.92,0-87.312-13.534-128.885-19.979-44.1-6.836-88.4-12.807-132.378-20.519-15.005-2.632-28.141-8.936-43.331-9.777-21.969-1.219-44.246-.163-66.247-.292q-67.947-.394-135.892-1.154c22.247-22.5,49.557-37.782,76.491-52.783,22.909-12.757,47.089-25.84,72.726-24.736,25.87,1.113,51.527,16.682,76.544,9.315,14.339-4.223,26.005-15.43,37.114-26.3,17.769-17.385,37.849-45.281,60.354-52.017,23.233-6.956,55.745-.2,78.017,7.88,39.853,14.463,73.207,46.206,113.731,58.278,20.032,5.967,40.2,5.224,60.128,12.317A194.2,194.2,0,0,1,1239.094,210.773Z" fill="url(#linear-gradient)"/>
      <path id="Path_105" data-name="Path 105" d="M1022.61,256.5s-116.163-94.461-266.5-21.51c-1.209.586-13.358-6.957-14.736-7.606A318.907,318.907,0,0,0,697.8,210.9c-45.11-13.626-100.8-26.37-144.342-5.452q-37.539,18.033-73.877,38.171c-6.383,3.538-12.824,7.16-19.937,9.108-9.628,2.636-19.865,2.05-29.888,1.783-57.468-1.533-118.577,25.925-170.9,45.6,82.059,4.328,166.717-1.605,249.24-1.605h353.3c8.987,0,161.8,1.789,161.942,0C1023.848,292.169,1026.989,260.065,1022.61,256.5Z" fill="url(#linear-gradient-2)"/>
      <path id="Path_106" data-name="Path 106" d="M1180.227,394.836s-.158,0-.432,0l-.03,17.259Q1180,403.466,1180.227,394.836Z" fill="url(#linear-gradient-3)"/>
      <path id="Path_107" data-name="Path 107" d="M1448.653,433.493c-43.423-115.12-164.975-143.71-273.3-167.285q-8.078-1.758-16.18-3.4c-106.153-21.47-215.828-27.464-323.312-12.8-21.086,2.877-41.631,6.521-63.287,8.545-25.566,2.389-52,2.459-78.169,3.053-80.711,1.833-160.222,8.726-239.017,16.2-45.967,4.361-91.946,8.942-136.209,15.687-55.758,8.5-114.8,11.389-170.092,27.131-28.591,8.141-58.7,19.8-81.986,38.8-24.309,19.835-32.243,47.665-47,74.081C20.1,433.508,1448.659,433.508,1448.653,433.493Z" fill="url(#linear-gradient-4)"/>
    </g>
    <g id="圖層_3" data-name="圖層 3">
      <g id="Group_238" data-name="Group 238">
        <path id="Path_108" data-name="Path 108" d="M784.518,236.122h118.8l-8.48-9.342-98.938-.758Z" fill="#a38a77"/>
        <g id="Group_236" data-name="Group 236">
          <path id="Path_109" data-name="Path 109" d="M784.518,236.122c3.171,1.116,6.681.319,9.9-.672a86.57,86.57,0,0,0,9.721-3.653,7.04,7.04,0,0,0,2.4-1.506,2.47,2.47,0,0,0,.593-2.6c-.489-1.07-1.833-1.421-3.011-1.592-4.6-.665-8.692-1.226-12.015,2.331C791.026,229.577,786.466,236.808,784.518,236.122Z" fill="url(#linear-gradient-5)"/>
          <path id="Path_110" data-name="Path 110" d="M809.061,235.727a1.235,1.235,0,0,0,.484.321,1.662,1.662,0,0,0,.881-.062c5.8-1.5,11.74-3.06,16.487-6.085,1.388-.885,2.772-2.272,2.069-3.566-.514-.944-1.916-1.347-3.189-1.567a60.761,60.761,0,0,0-10.4-.581c-3.343,0-6.97.083-9.58,1.731a8.616,8.616,0,0,0,1.214.173C806.649,229.644,805.817,232.632,809.061,235.727Z" fill="url(#linear-gradient-6)"/>
          <path id="Path_111" data-name="Path 111" d="M906.642,236.122c-3.171,1.116-6.681.319-9.894-.672a86.51,86.51,0,0,1-9.722-3.653,7.04,7.04,0,0,1-2.4-1.506,2.47,2.47,0,0,1-.593-2.6c.489-1.07,1.833-1.421,3.011-1.592,4.6-.665,8.692-1.226,12.015,2.331C900.134,229.577,904.694,236.808,906.642,236.122Z" fill="url(#linear-gradient-7)"/>
          <path id="Path_112" data-name="Path 112" d="M882.1,235.727a1.234,1.234,0,0,1-.484.321,1.662,1.662,0,0,1-.881-.062c-5.8-1.5-11.74-3.06-16.487-6.085-1.388-.885-2.772-2.272-2.069-3.566.514-.944,1.916-1.347,3.189-1.567a60.76,60.76,0,0,1,10.4-.581c3.343,0,6.971.083,9.58,1.731a8.6,8.6,0,0,1-1.214.173C884.511,229.644,885.343,232.632,882.1,235.727Z" fill="url(#linear-gradient-8)"/>
          <path id="Path_113" data-name="Path 113" d="M830.56,231.051a16.58,16.58,0,0,0,5.728,3.033,30.711,30.711,0,0,0,8.838,2.32c4.617.272,9.044-1.483,13.249-3.2a13.222,13.222,0,0,0,3.429-1.8,3.682,3.682,0,0,0,1.54-3.147,3.968,3.968,0,0,0-2.526-2.848,13.9,13.9,0,0,0-4.117-.871c-6.077-.645-12.272-1.174-18.372-.449C834.114,224.586,825,225.781,830.56,231.051Z" fill="url(#linear-gradient-9)"/>
        </g>
        <path id="Path_114" data-name="Path 114" d="M826.31,83.209c.246,3.607.822,7.718,2.649,11.106a16.685,16.685,0,0,0,16.374,8.709c3.739-.292,8.957-.409,12.127-1.987,4.573-2.275,5.6-8.315,6.639-11.846a29.1,29.1,0,0,0,.908-14.18,12.107,12.107,0,0,0-6.4-8.368c-3.2-1.649-7.25-2.137-11.146-2.581-6.253-.712-15.478-1.63-18.912,3.288C825.874,71.181,826.032,79.131,826.31,83.209Z" fill="#968374"/>
        <path id="Path_115" data-name="Path 115" d="M843.811,66.363A30.617,30.617,0,0,1,857.8,69.177a6.043,6.043,0,0,1,2.218,1.522c1.511,1.842,1.258,7.727,4.95,7.062,2.123-.382,4.337-6.46,1.335-6.5a2.245,2.245,0,0,0,2.072-2.77,12.911,12.911,0,0,0-.815-1.558c-.736-1.579-.107-3.492-.637-5.151a3.93,3.93,0,0,0-3.765-2.655,5.431,5.431,0,0,0-4.866-5.462,4.919,4.919,0,0,1-1.313-.155c-.735-.261-1.181-.982-1.722-1.544a4.992,4.992,0,0,0-5.9-.841,1.945,1.945,0,0,1-1.28.436,1.857,1.857,0,0,1-.825-.57,6.164,6.164,0,0,0-10.2,2.85,3.788,3.788,0,0,0-5.7,2.56,4.565,4.565,0,0,0-3.9,2.171c-1.035,1.727.055,3.226-.394,4.805-.417,1.467-2.222,2.367-2.615,4a4.5,4.5,0,0,0,.829,3.779,2.39,2.39,0,0,0-.56,4.171c3.476,2.519,5.264-.714,6.155-3.438.8-2.457,3.363-3.7,5.736-4.386A30.006,30.006,0,0,1,843.811,66.363Z" fill="#726356"/>
        <path id="Path_116" data-name="Path 116" d="M865.863,77.289a3.214,3.214,0,0,1,.967-.988c.974-.534,2.188.174,2.811,1.137.968,1.5,1.012,3.441,1.01,5.26a22.978,22.978,0,0,1-.05,4.294c-.276,1.427-1.437,2.7-1.924,4.1a8.575,8.575,0,0,0-.328,2.921c0,1.065-.149,2.264-.042,3.309a10.118,10.118,0,0,0,1.291,3.1c.48,1.007,1.262,3.068.128,3.942-.931.718-2.893.293-3.843-.415a5.4,5.4,0,0,1-1.979-3.679c-.9-4.84-.467-9.866.043-14.722.162-1.54-.494-3.424-.268-4.8C863.89,79.461,865.118,78.306,865.863,77.289Z" fill="#968374"/>
        <path id="Path_117" data-name="Path 117" d="M825.892,77.289a3.225,3.225,0,0,0-.967-.988c-.975-.534-2.189.174-2.811,1.137-.969,1.5-1.012,3.441-1.011,5.26,0,3.685,1.045,7.265,2.107,10.87a8.822,8.822,0,0,1,.47,2.356c.023,2.074-1.456,4.028-2.228,6.047-.322.844-.286,1.977,1.032,2.285a3.546,3.546,0,0,0,3.226-1.242c4.819-5.245,2.7-11.764,2.1-17.467-.161-1.54.495-3.424.269-4.8C827.864,79.461,826.637,78.306,825.892,77.289Z" fill="#968374"/>
        <path id="Path_118" data-name="Path 118" d="M805.311,208.5c-4.349.051-9.341-.171-12.061-3.565a10.4,10.4,0,0,1-1.652-3.219c-3.159-9.37,2.572-20.771,11.977-23.827-2.809,1.082-6.111-.666-7.627-3.267s-1.606-5.79-1.284-8.783c1.063-9.9,6.115-19.074,6.883-29,.343-4.428-.168-8.982,1.1-13.239,1.758-5.926,6.76-9.493,12.336-12.086,3.8-1.766,7.859-3.081,11.346-4.381,7.394-2.759,8.264-5.018,9.965-9.778a58.973,58.973,0,0,0,8.333-.222c1.412-.173,2.789-.449,4.207-.6a31.382,31.382,0,0,1,5.187-.149c2.332.147,1.5-.033,2.016.937.906,1.711.97,3.541,1.9,5.251.878,1.619,2.644,2.562,4.973,3.525,1.486.614,3.086,1.114,4.683,1.612,11.2,3.5,16.56,8.479,19.372,20.187a362.568,362.568,0,0,1,7.026,38.157c.206,1.593.358,3.365-.594,4.658-.993,1.35-3.035,1.937-3.412,3.571-.463,2.013,1.947,3.4,3.925,4,7.578,2.312,7.222,14.26,5.622,20.537-3.584,14.068-24.06,9.884-34.193,9.745Q835.323,208.147,805.311,208.5Z" fill="#968374"/>
        <path id="Path_119" data-name="Path 119" d="M833.284,81.457s3.451,4.193,8.4,0A17.716,17.716,0,0,1,833.284,81.457Z" fill="#524740"/>
        <path id="Path_120" data-name="Path 120" d="M850.405,81.457s3.452,4.193,8.4,0A17.716,17.716,0,0,1,850.405,81.457Z" fill="#524740"/>
        <path id="Path_121" data-name="Path 121" d="M842.138,87.131l3.585-1.567,3.6,1.5Z" fill="#524740"/>
        <ellipse id="Ellipse_120" data-name="Ellipse 120" cx="0.9" cy="0.553" rx="0.9" ry="0.553" transform="translate(844.652 73.461)" fill="#524740"/>
        <path id="Path_122" data-name="Path 122" d="M841.5,92.246a17.747,17.747,0,0,0,8.779,0" fill="none" stroke="#726356" stroke-linecap="round" stroke-linejoin="round" stroke-width="1.066"/>
        <path id="Path_123" data-name="Path 123" d="M831.013,104.955s17.328,9.974,28.933-.33" fill="none" stroke="#726356" stroke-linecap="round" stroke-linejoin="round" stroke-width="1.066"/>
        <path id="Path_124" data-name="Path 124" d="M824.947,107.618s23.5,17,40.3-.66" fill="none" stroke="#726356" stroke-linecap="round" stroke-linejoin="round" stroke-width="1.066"/>
        <path id="Path_125" data-name="Path 125" d="M832.284,183.469c3.5,0,7.126.713,10.716.731,3.619.017,7.234-.176,10.81-.495,7.047-.63,14.029-2.427,21.042-2.818a1.335,1.335,0,0,0,.485-.087c.31-.154.079-.481-.3-.571a4.22,4.22,0,0,0-1.2-.005c-1.008.062-1.784-.264-2.726-.28a29.443,29.443,0,0,0-3.255.345c-2.271.232-4.545.455-6.844.566-5.807.28-11.315,1.418-17.245,1.225-2.374-.077-4.722-.324-7.063-.571-4.188-.441-8.377-.684-12.553-1.115a29.114,29.114,0,0,0-5-.548c-.622.028-3.6.788-3.787.754C820.117,181.462,827.318,183.469,832.284,183.469Z" fill="#726356"/>
        <path id="Path_126" data-name="Path 126" d="M862.892,189.728c.316.1-.049.295-.4.382-6.2,1.559-14.047,1.647-21.423,1.537-2.306-.035-10.465.12-11.768-.813-2.343-1.68,4.075-1.286,6.121-1.177C844.584,190.144,853.7,189.974,862.892,189.728Z" fill="#726356"/>
        <path id="Path_127" data-name="Path 127" d="M807.014,198.542l-5.316-.087c-1.528-.025-3.054-.043-4.583-.039a.453.453,0,0,0,.141.616,1.324,1.324,0,0,0,.675.18,64.583,64.583,0,0,1,6.723.548c1.789.342,3.541.919,5.377,1.2a19.62,19.62,0,0,0,6.205.208c2.017-.342,2.94-1.515,4.456-2.782,1.141-.953,1.461-2.573,2.388-3.735.31-.388.686-.724.959-1.139a1.571,1.571,0,0,0,.243-1.411,1.229,1.229,0,0,0-1.4.255,5.1,5.1,0,0,0-.864,1.252C819.2,198.346,811.908,198.622,807.014,198.542Z" fill="#726356"/>
        <path id="Path_128" data-name="Path 128" d="M806.862,192.045l-4.7-.076c-1.35-.023-2.7-.038-4.048-.035a.4.4,0,0,0,.126.544,1.158,1.158,0,0,0,.6.16,56.988,56.988,0,0,1,5.938.483c1.579.3,3.127.812,4.748,1.063a17.356,17.356,0,0,0,5.48.183c1.781-.3,2.6-1.338,3.935-2.457,1.007-.841,1.291-2.272,2.109-3.3.274-.343.606-.639.847-1.006a1.389,1.389,0,0,0,.215-1.246,1.087,1.087,0,0,0-1.239.225,4.522,4.522,0,0,0-.763,1.106C817.624,191.872,811.184,192.116,806.862,192.045Z" fill="#726356"/>
        <path id="Path_129" data-name="Path 129" d="M884.724,198.542l5.316-.087c1.528-.025,3.054-.043,4.584-.039a.455.455,0,0,1-.142.616,1.324,1.324,0,0,1-.675.18,64.584,64.584,0,0,0-6.723.548c-1.788.342-3.541.919-5.377,1.2a19.619,19.619,0,0,1-6.2.208c-2.017-.342-2.939-1.515-4.456-2.782-1.14-.953-1.461-2.573-2.388-3.735-.31-.388-.686-.724-.959-1.139a1.571,1.571,0,0,1-.243-1.411,1.23,1.23,0,0,1,1.4.255,5.152,5.152,0,0,1,.864,1.252C872.537,198.346,879.83,198.622,884.724,198.542Z" fill="#726356"/>
        <path id="Path_130" data-name="Path 130" d="M884.876,192.045l4.7-.076c1.35-.023,2.7-.038,4.048-.035a.4.4,0,0,1-.125.544,1.159,1.159,0,0,1-.6.16,56.986,56.986,0,0,0-5.938.483c-1.579.3-3.127.812-4.748,1.063a17.355,17.355,0,0,1-5.48.183c-1.781-.3-2.6-1.338-3.935-2.457-1.007-.841-1.29-2.272-2.109-3.3-.273-.343-.606-.639-.846-1.006a1.383,1.383,0,0,1-.215-1.246,1.085,1.085,0,0,1,1.238.225,4.52,4.52,0,0,1,.763,1.106C874.114,191.872,880.554,192.116,884.876,192.045Z" fill="#726356"/>
        <path id="Path_131" data-name="Path 131" d="M832.725,166.174a41.955,41.955,0,0,0,7.652-1.43,3.728,3.728,0,0,1,1.522-.158,1.268,1.268,0,0,1,1.078.958,1.3,1.3,0,0,1-.768,1.252,4.682,4.682,0,0,1-1.519.36,13.822,13.822,0,0,0-3.6,1.016c-.426.186-.918.64-.652,1.02a.825.825,0,0,0,.63.253,16.57,16.57,0,0,0,3.574.08,5.556,5.556,0,0,0,3.227-1.406c.706-.688,1.226-1.668,2.171-1.949a3.379,3.379,0,0,1-.493,3.25c-1,1.408-2.627,2.1-4,3.07a14.4,14.4,0,0,1-4.573,2.6,52.9,52.9,0,0,1-7.854,1.023c-2.149.228-4.519.665-6.52-.385a3.031,3.031,0,0,1-1.088-.847,2.982,2.982,0,0,1-.42-1.9,8.464,8.464,0,0,1,2.5-5.549c1.9-1.889,3.594-1.615,6.121-1.33A17.736,17.736,0,0,0,832.725,166.174Z" fill="#726356"/>
        <path id="Path_132" data-name="Path 132" d="M856.811,166.174a41.981,41.981,0,0,1-7.653-1.43,3.722,3.722,0,0,0-1.521-.158,1.268,1.268,0,0,0-1.078.958,1.3,1.3,0,0,0,.768,1.252,4.682,4.682,0,0,0,1.519.36,13.822,13.822,0,0,1,3.6,1.016c.426.186.918.64.651,1.02a.823.823,0,0,1-.629.253,16.57,16.57,0,0,1-3.574.08,5.556,5.556,0,0,1-3.227-1.406c-.706-.688-1.226-1.668-2.171-1.949a3.374,3.374,0,0,0,.493,3.25c1,1.408,2.626,2.1,4,3.07a14.4,14.4,0,0,0,4.573,2.6,52.9,52.9,0,0,0,7.854,1.023c2.149.228,4.519.665,6.519-.385a3.026,3.026,0,0,0,1.089-.847,2.982,2.982,0,0,0,.42-1.9,8.464,8.464,0,0,0-2.5-5.549c-1.9-1.889-3.594-1.615-6.121-1.33A17.736,17.736,0,0,1,856.811,166.174Z" fill="#726356"/>
        <path id="Path_133" data-name="Path 133" d="M829.458,142.9a5.508,5.508,0,0,0,1.865,3.273c4.661,3.08,13.315,1.968,18.636,1.918a16.459,16.459,0,0,0,9.156-2.241c2.629-1.254,2.414-3.2,2.608-5.812.241-3.235.506-6.468.843-9.7A138.02,138.02,0,0,1,865.76,111.2c-1.1,4.4-.459,9.384-.6,13.885a148.166,148.166,0,0,1-1.532,17.114c-.809,5.447-2.306,8.636-8.26,8.649l-17.2.038c-3.764.008-8.358-.252-10.6-3.813a16.638,16.638,0,0,1-1.9-5.863c-1.9-10.059-3.468-20.3-2.6-30.5,3.187.39,2.157,13.261,2.567,15.608A160.915,160.915,0,0,0,829.458,142.9Z" fill="#726356"/>
        <path id="Path_134" data-name="Path 134" d="M835.672,135.724c1.548-.489,3.1-1.3,4.7-1.029a4.242,4.242,0,0,1-2.367,2.169,33.167,33.167,0,0,1-8.481,2.884c-2,.389-4.583-1.475-2.368-3.276C828.481,135.4,833.756,136.331,835.672,135.724Z" fill="#726356"/>
        <path id="Path_135" data-name="Path 135" d="M854.981,135.724c-1.547-.489-3.1-1.3-4.7-1.029a4.248,4.248,0,0,0,2.367,2.169,33.167,33.167,0,0,0,8.481,2.884c2.005.389,4.583-1.475,2.369-3.276C862.173,135.4,856.9,136.331,854.981,135.724Z" fill="#726356"/>
        <path id="Path_136" data-name="Path 136" d="M826.608,158.818l-4.966,1.467c-4,1.181-8.367,2.643-10.474,6.24a9.964,9.964,0,0,1,9.263-9.359,12.232,12.232,0,0,0-10.594,1.663c-2.439,1.731-4.219,4.358-6.89,5.7a5.648,5.648,0,0,1,.858-4.729,16.736,16.736,0,0,1,3.465-3.537c2.135-1.785,4.531-3.667,7.313-3.625.9.014,1.8.235,2.7.172a2.36,2.36,0,0,0,2.153-1.366,3.327,3.327,0,0,0-.452-2.356c-1.325-2.9-3.044-6.862-2.768-10.019C820.915,138.687,826.167,158.948,826.608,158.818Z" fill="#726356"/>
        <path id="Path_137" data-name="Path 137" d="M861.228,158.818l4.965,1.467c4,1.181,8.368,2.643,10.474,6.24a9.963,9.963,0,0,0-9.262-9.359A12.232,12.232,0,0,1,878,158.829c2.439,1.731,4.219,4.358,6.89,5.7a5.649,5.649,0,0,0-.859-4.729,16.731,16.731,0,0,0-3.464-3.537c-2.135-1.785-4.531-3.667-7.314-3.625-.9.014-1.8.235-2.7.172a2.358,2.358,0,0,1-2.153-1.366,3.322,3.322,0,0,1,.452-2.356c1.325-2.9,3.044-6.862,2.767-10.019C866.921,138.687,861.669,158.948,861.228,158.818Z" fill="#726356"/>
        <path id="Path_138" data-name="Path 138" d="M823.6,166.589a9.745,9.745,0,0,0-2.206,2.15,22.664,22.664,0,0,0-1.282,2.3,15.849,15.849,0,0,1-7.43,6.865q4.354-.644,8.668-1.531a2.329,2.329,0,0,0,2.03-1.465q1.479-2.637,2.755-5.381c.628-1.35,2.308-3.944,2.058-5.385A13.41,13.41,0,0,0,823.6,166.589Z" fill="#726356"/>
        <path id="Path_139" data-name="Path 139" d="M865.67,166.589a9.741,9.741,0,0,1,2.205,2.15,22.672,22.672,0,0,1,1.283,2.3,15.847,15.847,0,0,0,7.429,6.865q-4.353-.644-8.667-1.531a2.332,2.332,0,0,1-2.031-1.465q-1.477-2.637-2.755-5.381c-.628-1.35-2.308-3.944-2.057-5.385A13.419,13.419,0,0,1,865.67,166.589Z" fill="#726356"/>
        <rect id="Rectangle_240" data-name="Rectangle 240" width="111.991" height="21.385" rx="8.936" transform="translate(788.469 205.829)" fill="#fffac6"/>
        <rect id="Rectangle_241" data-name="Rectangle 241" width="111.991" height="5.832" rx="2.437" transform="translate(788.469 205.092)" fill="#65bea0"/>
        <g id="Group_237" data-name="Group 237">
          <path id="Path_140" data-name="Path 140" d="M790.576,217.91a13.086,13.086,0,0,0,1.95,5.447,6.558,6.558,0,0,0,4.316,3.054,1.15,1.15,0,0,0,1.267-.506c.106-.235.112-.535.219-.77.261-.575.989-.549,1.6-.4s1.3.348,1.747-.036c.459-.4.435-1.242.308-1.981a20.718,20.718,0,0,0-3.676-8,8.131,8.131,0,0,0-1.807-2.033,1.97,1.97,0,0,0-2.2-.289c-.539.379-.856,1.229-1.546,1.167a4.964,4.964,0,0,1-1.1-.48C790.21,212.536,790.434,216.9,790.576,217.91Z" fill="url(#linear-gradient-10)"/>
          <path id="Path_141" data-name="Path 141" d="M898.833,217.647a13.369,13.369,0,0,1-1.613,5.7,6.651,6.651,0,0,1-4.2,3.4,1.183,1.183,0,0,1-1.331-.44c-.125-.234-.153-.541-.278-.775-.308-.572-1.051-.5-1.668-.311s-1.31.437-1.79.071c-.5-.379-.532-1.246-.454-2.01a21.075,21.075,0,0,1,3.2-8.422,8.214,8.214,0,0,1,1.707-2.2,2.007,2.007,0,0,1,2.228-.432c.578.355.963,1.206,1.663,1.1a4.926,4.926,0,0,0,1.09-.56C898.831,212.118,898.908,216.608,898.833,217.647Z" fill="url(#linear-gradient-11)"/>
          <path id="Path_142" data-name="Path 142" d="M818.978,222.506a7.357,7.357,0,0,0,.156-1.864c-.021-2.587-.254-5.475-2.135-7.429a3.171,3.171,0,0,0-2.78-.982c-.92.181-1.795.876-2.682.594a6.166,6.166,0,0,1-1.211-.806c-1.645-.984-3.66,3.185-4,4.174a9.134,9.134,0,0,0-.282,5.739,5.778,5.778,0,0,0,4.966,4.254.718.718,0,0,0,.4-.046c.169-.091.244-.3.345-.465a1.232,1.232,0,0,1,1.637-.431c.231.138.413.351.631.509a2.187,2.187,0,0,0,2.224.059A5.187,5.187,0,0,0,818.978,222.506Z" fill="url(#linear-gradient-12)"/>
          <path id="Path_143" data-name="Path 143" d="M822,222.506a7.355,7.355,0,0,1-.156-1.864c.021-2.587.254-5.475,2.135-7.429a3.171,3.171,0,0,1,2.78-.982c.92.181,1.795.876,2.682.594a6.164,6.164,0,0,0,1.211-.806c1.645-.984,3.66,3.185,4,4.174a9.141,9.141,0,0,1,.283,5.739,5.781,5.781,0,0,1-4.967,4.254.719.719,0,0,1-.4-.046c-.169-.091-.244-.3-.345-.465a1.232,1.232,0,0,0-1.637-.431c-.231.138-.412.351-.631.509a2.187,2.187,0,0,1-2.224.059A5.187,5.187,0,0,1,822,222.506Z" fill="url(#linear-gradient-12)"/>
          <path id="Path_144" data-name="Path 144" d="M851.275,222.506a7.36,7.36,0,0,0,.156-1.864c-.021-2.587-.254-5.475-2.135-7.429a3.171,3.171,0,0,0-2.78-.982c-.92.181-1.795.876-2.682.594a6.166,6.166,0,0,1-1.211-.806c-1.645-.984-3.66,3.185-4,4.174a9.141,9.141,0,0,0-.283,5.739,5.78,5.78,0,0,0,4.967,4.254.719.719,0,0,0,.4-.046c.169-.091.244-.3.345-.465a1.231,1.231,0,0,1,1.637-.431c.231.138.412.351.631.509a2.187,2.187,0,0,0,2.224.059A5.187,5.187,0,0,0,851.275,222.506Z" fill="url(#linear-gradient-12)"/>
          <path id="Path_145" data-name="Path 145" d="M883.572,222.506a7.405,7.405,0,0,0,.156-1.864c-.021-2.587-.254-5.475-2.135-7.429a3.172,3.172,0,0,0-2.78-.982c-.921.181-1.795.876-2.682.594a6.166,6.166,0,0,1-1.211-.806c-1.645-.984-3.66,3.185-4,4.174a9.141,9.141,0,0,0-.283,5.739,5.78,5.78,0,0,0,4.967,4.254.719.719,0,0,0,.4-.046c.169-.091.244-.3.345-.465a1.231,1.231,0,0,1,1.637-.431c.231.138.412.351.63.509a2.189,2.189,0,0,0,2.225.059A5.187,5.187,0,0,0,883.572,222.506Z" fill="url(#linear-gradient-12)"/>
          <path id="Path_146" data-name="Path 146" d="M854.3,222.506a7.355,7.355,0,0,1-.156-1.864c.021-2.587.254-5.475,2.135-7.429a3.171,3.171,0,0,1,2.78-.982c.92.181,1.795.876,2.682.594a6.166,6.166,0,0,0,1.211-.806c1.645-.984,3.66,3.185,4,4.174a9.134,9.134,0,0,1,.282,5.739,5.778,5.778,0,0,1-4.966,4.254.717.717,0,0,1-.4-.046c-.169-.091-.244-.3-.345-.465a1.233,1.233,0,0,0-1.638-.431c-.23.138-.412.351-.63.509a2.187,2.187,0,0,1-2.224.059A5.187,5.187,0,0,1,854.3,222.506Z" fill="url(#linear-gradient-12)"/>
        </g>
      </g>
      <g id="Group_240" data-name="Group 240">
        <g id="Group_239" data-name="Group 239">
          <path id="Path_147" data-name="Path 147" d="M951.813,329.3l-27.552-42.725h38.661l31.089,24.3Z" fill="url(#linear-gradient-17)"/>
          <rect id="Rectangle_242" data-name="Rectangle 242" width="39.838" height="53.626" transform="translate(954.173 310.862)" fill="#f0f7ff"/>
          <path id="Path_148" data-name="Path 148" d="M955.35,364.488H893.173V310.874l31.089-24.3,31.089,24.3v53.614Z" fill="#bae6f9"/>
          <rect id="Rectangle_243" data-name="Rectangle 243" width="46.168" height="3.165" transform="translate(899.75 318.785)" fill="#223663"/>
          <rect id="Rectangle_244" data-name="Rectangle 244" width="46.168" height="3.165" transform="translate(899.75 329.283)" fill="#223663"/>
          <rect id="Rectangle_245" data-name="Rectangle 245" width="46.168" height="3.165" transform="translate(899.75 339.781)" fill="#223663"/>
          <rect id="Rectangle_246" data-name="Rectangle 246" width="46.168" height="3.165" transform="translate(899.75 350.279)" fill="#223663"/>
          <rect id="Rectangle_247" data-name="Rectangle 247" width="5.461" height="9.06" transform="translate(965.279 323.533)" fill="#223663"/>
          <rect id="Rectangle_248" data-name="Rectangle 248" width="5.461" height="9.06" transform="translate(965.279 339.915)" fill="#223663"/>
        </g>
        <rect id="Rectangle_249" data-name="Rectangle 249" width="5.461" height="9.06" transform="translate(981.289 323.533)" fill="#223663"/>
        <rect id="Rectangle_250" data-name="Rectangle 250" width="5.461" height="9.06" transform="translate(981.289 339.915)" fill="#223663"/>
      </g>
      <g id="Group_241" data-name="Group 241">
        <path id="Path_149" data-name="Path 149" d="M425.4,283.422l14.917,16.072h59.852l-14.917-16.072Z" fill="url(#linear-gradient-17)"/>
        <path id="Path_150" data-name="Path 150" d="M438.737,268.44l9.6,10.339h38.5l-9.6-10.339Z" fill="url(#linear-gradient-17)"/>
        <path id="Path_151" data-name="Path 151" d="M448.332,278.778V293.76l-9.6-10.339h-3.273V271.966l3.273-3.527Z" fill="#bae6f9"/>
        <rect id="Rectangle_251" data-name="Rectangle 251" width="38.5" height="14.982" transform="translate(448.332 278.778)" fill="#f0f7ff"/>
        <rect id="Rectangle_252" data-name="Rectangle 252" width="59.852" height="52.822" transform="translate(440.317 299.494)" fill="#f0f7ff"/>
        <path id="Path_152" data-name="Path 152" d="M425.4,283.422l-15.612,15.612v53.282h30.529V299.494Z" fill="#bae6f9"/>
        <rect id="Rectangle_253" data-name="Rectangle 253" width="6.308" height="10.501" transform="translate(413.959 305.548)" fill="#223663"/>
        <rect id="Rectangle_254" data-name="Rectangle 254" width="6.308" height="10.501" transform="translate(426.487 305.548)" fill="#223663"/>
        <rect id="Rectangle_255" data-name="Rectangle 255" width="6.308" height="10.501" transform="translate(413.959 321.889)" fill="#223663"/>
        <rect id="Rectangle_256" data-name="Rectangle 256" width="6.308" height="10.501" transform="translate(426.487 321.889)" fill="#223663"/>
        <path id="Path_153" data-name="Path 153" d="M440.959,273.992v8.977l3.35,3.61V277.6Z" fill="#223663"/>
        <path id="Path_154" data-name="Path 154" d="M429.641,352.316h-13.55v-7.923a6.775,6.775,0,0,1,6.775-6.776h0a6.775,6.775,0,0,1,6.775,6.776Z" fill="#223663"/>
      </g>
      <g id="Group_247" data-name="Group 247">
        <path id="Path_155" data-name="Path 155" d="M571.91,307.529l-14.424-27.84h29.04L602.8,295.52Z" fill="url(#linear-gradient-17)"/>
        <rect id="Rectangle_257" data-name="Rectangle 257" width="29.656" height="58.142" transform="translate(573.145 295.512)" fill="#f0f7ff"/>
        <path id="Path_156" data-name="Path 156" d="M573.762,353.654H541.209V295.52l16.276-15.831,16.276,15.831v58.134Z" fill="#bae6f9"/>
        <g id="Group_242" data-name="Group 242">
          <path id="Path_157" data-name="Path 157" d="M554.231,307.838h-5.848V300.17a2.924,2.924,0,0,1,2.924-2.924h0a2.924,2.924,0,0,1,2.924,2.924Z" fill="#223663"/>
          <path id="Path_158" data-name="Path 158" d="M566.588,307.838H560.74V300.17a2.924,2.924,0,0,1,2.924-2.924h0a2.924,2.924,0,0,1,2.924,2.924Z" fill="#223663"/>
        </g>
        <g id="Group_243" data-name="Group 243">
          <path id="Path_159" data-name="Path 159" d="M554.231,323.837h-5.848v-7.668a2.924,2.924,0,0,1,2.924-2.924h0a2.924,2.924,0,0,1,2.924,2.924Z" fill="#223663"/>
          <path id="Path_160" data-name="Path 160" d="M566.588,323.837H560.74v-7.668a2.924,2.924,0,0,1,2.924-2.924h0a2.924,2.924,0,0,1,2.924,2.924Z" fill="#223663"/>
        </g>
        <g id="Group_244" data-name="Group 244">
          <path id="Path_161" data-name="Path 161" d="M554.231,339.836h-5.848v-7.668a2.924,2.924,0,0,1,2.924-2.924h0a2.924,2.924,0,0,1,2.924,2.924Z" fill="#223663"/>
          <path id="Path_162" data-name="Path 162" d="M566.588,339.836H560.74v-7.668a2.924,2.924,0,0,1,2.924-2.924h0a2.924,2.924,0,0,1,2.924,2.924Z" fill="#223663"/>
        </g>
        <g id="Group_246" data-name="Group 246">
          <g id="Group_245" data-name="Group 245">
            <path id="Path_163" data-name="Path 163" d="M604.677,340.263l-13.433-27.84h27.044l15.157,15.831Z" fill="url(#linear-gradient-17)"/>
            <rect id="Rectangle_258" data-name="Rectangle 258" width="27.618" height="25.344" transform="translate(605.828 328.246)" fill="#f0f7ff"/>
            <path id="Path_164" data-name="Path 164" d="M606.4,353.59H591.244V312.423L606.4,328.254V353.59Z" fill="#bae6f9"/>
          </g>
          <path id="Path_165" data-name="Path 165" d="M620.594,337.9a4.34,4.34,0,0,0-4.34,4.34V353.59h8.681V342.243A4.341,4.341,0,0,0,620.594,337.9Z" fill="#223663"/>
        </g>
      </g>
      <g id="Group_255" data-name="Group 255">
        <g id="Group_248" data-name="Group 248">
          <rect id="Rectangle_259" data-name="Rectangle 259" width="48.349" height="44.106" transform="translate(725.791 374.207) rotate(180)" fill="#f0f7ff"/>
        </g>
        <g id="Group_249" data-name="Group 249">
          <path id="Path_166" data-name="Path 166" d="M620.526,330.783v43.425h56.916V329.94l-27.826-27.826Z" fill="#bae6f9"/>
        </g>
        <g id="Group_250" data-name="Group 250">
          <path id="Path_167" data-name="Path 167" d="M725.809,330.23,696.3,301.692l-46.681.454,27.826,28.084Z" fill="url(#linear-gradient-17)"/>
        </g>
        <g id="Group_251" data-name="Group 251">
          <rect id="Rectangle_260" data-name="Rectangle 260" width="8.932" height="14.476" transform="translate(711.379 357.641) rotate(180)" fill="#223663"/>
        </g>
        <g id="Group_252" data-name="Group 252">
          <rect id="Rectangle_261" data-name="Rectangle 261" width="8.932" height="14.476" transform="translate(695.5 357.641) rotate(180)" fill="#223663"/>
        </g>
        <g id="Group_253" data-name="Group 253">
          <rect id="Rectangle_262" data-name="Rectangle 262" width="8.577" height="8.577" transform="translate(644.406 325.266)" fill="#223663"/>
        </g>
        <g id="Group_254" data-name="Group 254">
          <rect id="Rectangle_263" data-name="Rectangle 263" width="11.801" height="21.407" transform="translate(643.422 352.76)" fill="#223663"/>
        </g>
      </g>
      <g id="Group_256" data-name="Group 256">
        <path id="Path_168" data-name="Path 168" d="M340.835,302.39s5.138-6.661,4.187-14.083-6.852-9.135-11.229-9.135c0,0,.85-17.128-10.422-19.792-11.273,2.664-10.423,19.792-10.423,19.792-4.377,0-10.277,1.713-11.228,9.135s4.186,14.083,4.186,14.083-8.754,4.567-5.328,15.415,22.793,14.654,22.793,14.654,19.367-3.806,22.793-14.654S340.835,302.39,340.835,302.39Z" fill="url(#linear-gradient-23)"/>
        <path id="Path_169" data-name="Path 169" d="M339.411,309.344l-13.754,14.147-.889-18.566,10.11-17.7-10.252,14.739-1.255-26.2-1.255,26.2-10.252-14.739,10.11,17.7-.889,18.566L307.33,309.344l13.6,17.446-1.051,21.937h6.99l-1.051-21.937Z" fill="#0c2287"/>
      </g>
      <g id="Group_257" data-name="Group 257">
        <path id="Path_170" data-name="Path 170" d="M277.712,297.576s5.138-6.661,4.187-14.083-6.851-9.135-11.228-9.135c0,0,.85-17.128-10.423-19.792-11.273,2.664-10.423,19.792-10.423,19.792-4.377,0-10.276,1.713-11.228,9.135s4.187,14.083,4.187,14.083-8.754,4.568-5.329,15.415,22.793,14.654,22.793,14.654,19.367-3.806,22.793-14.654S277.712,297.576,277.712,297.576Z" fill="url(#linear-gradient-23)"/>
        <path id="Path_171" data-name="Path 171" d="M276.288,304.53l-13.754,14.147-.889-18.566,10.11-17.7L261.5,297.151l-1.255-26.2-1.255,26.2-10.252-14.739,10.11,17.7-.889,18.566L244.207,304.53l13.6,17.446-1.051,21.937h6.99l-1.051-21.937Z" fill="#0c2287"/>
      </g>
      <g id="Group_258" data-name="Group 258">
        <path id="Path_172" data-name="Path 172" d="M992.332,187.011s7.118-9.227,5.8-19.509-9.491-12.654-15.555-12.654c0,0,1.178-23.727-14.438-27.418-15.616,3.691-14.438,27.418-14.438,27.418-6.064,0-14.237,2.373-15.555,12.654s5.8,19.509,5.8,19.509-12.127,6.327-7.381,21.355,31.574,20.3,31.574,20.3,26.829-5.272,31.574-20.3S992.332,187.011,992.332,187.011Z" fill="url(#linear-gradient-25)"/>
        <path id="Path_173" data-name="Path 173" d="M990.359,196.644l-19.054,19.6-1.232-25.719L984.079,166l-14.2,20.417-1.738-36.288L966.4,186.421,952.2,166,966.2,190.523l-1.232,25.719-19.054-19.6,18.835,24.168L963.3,251.2h9.683l-1.456-30.389Z" fill="#0c2287"/>
      </g>
      <g id="Group_259" data-name="Group 259">
        <path id="Path_174" data-name="Path 174" d="M877.9,295.115,863,311.177H803.182l14.908-16.062Z" fill="url(#linear-gradient-17)"/>
        <path id="Path_175" data-name="Path 175" d="M864.576,280.142l-9.589,10.332H816.51l9.589-10.332Z" fill="url(#linear-gradient-17)"/>
        <path id="Path_176" data-name="Path 176" d="M854.987,290.474v14.973l9.589-10.332h3.271V283.667l-3.271-3.524Z" fill="#f0f7ff"/>
        <rect id="Rectangle_264" data-name="Rectangle 264" width="38.476" height="14.973" transform="translate(816.51 290.474)" fill="#bae6f9"/>
        <rect id="Rectangle_265" data-name="Rectangle 265" width="59.815" height="52.789" transform="translate(803.182 311.177)" fill="#bae6f9"/>
        <path id="Path_177" data-name="Path 177" d="M877.9,295.115l15.6,15.6v53.249H863V311.177Z" fill="#f0f7ff"/>
        <rect id="Rectangle_266" data-name="Rectangle 266" width="6.304" height="10.495" transform="translate(889.339 327.722) rotate(180)" fill="#223663"/>
        <rect id="Rectangle_267" data-name="Rectangle 267" width="6.304" height="10.495" transform="translate(876.817 327.722) rotate(180)" fill="#223663"/>
        <rect id="Rectangle_268" data-name="Rectangle 268" width="6.304" height="10.494" transform="translate(889.339 344.053) rotate(180)" fill="#223663"/>
        <rect id="Rectangle_269" data-name="Rectangle 269" width="6.304" height="10.494" transform="translate(876.817 344.053) rotate(180)" fill="#223663"/>
        <path id="Path_178" data-name="Path 178" d="M862.355,285.692v8.972l-3.348,3.608V289.3Z" fill="#223663"/>
        <path id="Path_179" data-name="Path 179" d="M873.665,363.967h13.543v-7.919a6.772,6.772,0,0,0-6.771-6.771h0a6.772,6.772,0,0,0-6.772,6.771Z" fill="#223663"/>
      </g>
    </g>
  </g>
</svg>
