<svg xmlns="http://www.w3.org/2000/svg" xmlns:xlink="http://www.w3.org/1999/xlink" width="128" height="90" viewBox="0 0 128 90">
  <defs>
    <clipPath id="clip-path">
      <rect id="Rectangle_122" data-name="Rectangle 122" width="108.455" height="67.388" fill="#fff"/>
    </clipPath>
  </defs>
  <g id="ic-case2" transform="translate(-389 -759)">
    <g id="Group_95" data-name="Group 95" transform="translate(399 770)">
      <g id="Group_94" data-name="Group 94" transform="translate(0 0)" clip-path="url(#clip-path)">
        <path id="Path_37" data-name="Path 37" d="M0,0H9.087C16.2,22.5,23.26,44.833,30.391,67.388H0Z" transform="translate(0 0)" fill="#fff" fill-rule="evenodd"/>
        <path id="Path_38" data-name="Path 38" d="M174.231,67.359H144.1c2.176-6.884,4.293-13.584,6.411-20.284,4.71-14.895,9.452-29.779,14.089-44.7.548-1.767,1.277-2.508,3.176-2.338,2.059.184,4.148.042,6.459.042Z" transform="translate(-65.776 -0.008)" fill="#fff" fill-rule="evenodd"/>
        <path id="Path_39" data-name="Path 39" d="M38.064,29.059c1.881.713,3.31,1.172,4.668,1.788a10.855,10.855,0,0,0,9.949,0,14.313,14.313,0,0,1,14.245.052,10.074,10.074,0,0,0,9.677-.04A14.122,14.122,0,0,1,90.6,30.776a10.976,10.976,0,0,0,10.2.021c1.3-.6,2.669-1.045,4.613-1.794-1.168,3.925-1.515,7.8-3.448,10.56-1.147,1.639-4.767,1.884-7.326,2.078-1.665.127-3.512-.779-5.125-1.544a12.231,12.231,0,0,0-11.479-.022,12.932,12.932,0,0,1-12.71-.039,11.646,11.646,0,0,0-11.212.027c-3.474,1.782-7.057,2.337-10.717.845A4.7,4.7,0,0,1,40.907,38.6c-1.082-2.93-1.816-5.987-2.843-9.539" transform="translate(-17.375 -13.219)" fill="#fff" fill-rule="evenodd"/>
        <path id="Path_40" data-name="Path 40" d="M53.463,77.255c-1.107-3.717-2.069-6.95-2.846-9.56,3.217-.84,6.319-1.323,9.152-2.472,3.858-1.565,7.548-1.823,11.24.1a13.229,13.229,0,0,0,12.956-.04c3.7-1.913,7.394-1.609,11.24-.016,2.742,1.137,5.766,1.6,9.039,2.454-.683,2.33-1.524,5.392-2.533,8.4-.123.37-1.228.724-1.748.587a32.665,32.665,0,0,1-5.1-1.76,11.71,11.71,0,0,0-10.723.064,13.623,13.623,0,0,1-13.463-.035c-3.517-1.83-7.115-1.593-10.728,0-2.018.889-4.167,1.481-6.483,2.286" transform="translate(-23.105 -29.195)" fill="#fff" fill-rule="evenodd"/>
        <path id="Path_41" data-name="Path 41" d="M103.336,102.093c-.8,2.7-1.6,5.436-2.552,8.664-5.162-3.36-9.94-1.694-14.754.518a9.563,9.563,0,0,1-8.406-.314c-4.505-2.2-9.014-3.221-13.907-.269-.918-3.042-1.741-5.771-2.6-8.608,4.934-2.832,9.875-4.372,15.331-1.4,3.545,1.929,7.311,2.262,10.906.283,5.571-3.067,10.74-2.024,15.979,1.128" transform="translate(-27.9 -45.225)" fill="#fff" fill-rule="evenodd"/>
      </g>
    </g>
    <rect id="Rectangle_219" data-name="Rectangle 219" width="128" height="90" transform="translate(389 759)" fill="none"/>
  </g>
</svg>
