<svg xmlns="http://www.w3.org/2000/svg" xmlns:xlink="http://www.w3.org/1999/xlink" width="128" height="90" viewBox="0 0 128 90">
  <defs>
    <clipPath id="clip-path">
      <rect id="Rectangle_123" data-name="Rectangle 123" width="86.073" height="88.875" fill="#fff"/>
    </clipPath>
  </defs>
  <g id="ic-case3" transform="translate(-389 -991)">
    <g id="Group_97" data-name="Group 97" transform="translate(410 991)">
      <g id="Group_96" data-name="Group 96" clip-path="url(#clip-path)">
        <path id="Path_42" data-name="Path 42" d="M35.082,61.633V82.989c.474.038.826.089,1.178.089q14.957,0,29.914-.009c2.713,0,4.7-1.2,5.344-3.855a61.126,61.126,0,0,0,1.218-8.742,38.345,38.345,0,0,0-.117-4.979c-.1-2.39.98-3.457,3.378-3.572,3.514-.17,7.025-.428,10.532-.706a9.752,9.752,0,0,0,2.227-.573c3.265-1.084,4.508-2.755,4.523-6.2.025-6.12.006-12.241.006-18.361q0-14.532,0-29.063c0-.357-.032-.714-.052-1.152H35.072c0,2.492-.039,4.912.021,7.329a1.457,1.457,0,0,1-1.055,1.6c-1.576.7-3.073,1.587-4.75,2.474V16.179q0-6.324,0-12.647c0-2.4,1.095-3.527,3.471-3.527Q64.19,0,95.623,0c2.359,0,3.441,1.073,3.441,3.395q0,25.232-.028,50.464a34.168,34.168,0,0,1-.486,5.068,13.071,13.071,0,0,1-3.5,7.214q-9.133,9.518-18.329,18.975a12.345,12.345,0,0,1-9.408,3.753c-11.431-.054-22.861-.016-34.292-.016-2.7,0-3.733-1.039-3.732-3.747,0-5.837.017-11.674-.02-17.51a2.093,2.093,0,0,1,.866-1.845c1.582-1.26,3.111-2.586,4.945-4.123" transform="translate(-12.993 0)" fill="#fff" fill-rule="evenodd"/>
        <path id="Path_43" data-name="Path 43" d="M84.166,25.62C83.1,34.2,77.661,35.965,77.661,41.926a6.75,6.75,0,0,0,13.5,0c0-5.961-5.44-7.728-6.5-16.306a.251.251,0,0,0-.489,0" transform="translate(-34.474 -11.286)" fill="#fff"/>
        <path id="Path_44" data-name="Path 44" d="M18.188,40.082A18.188,18.188,0,1,0,36.376,58.27,18.188,18.188,0,0,0,18.188,40.082m8.6,11.268L16.862,67.284a1.98,1.98,0,0,1-1.592.932l-.091,0a1.982,1.982,0,0,1-1.579-.785L8.522,60.725a1.981,1.981,0,0,1,3.159-2.391l3.34,4.41,8.4-13.489a1.981,1.981,0,1,1,3.363,2.094" transform="translate(0 -17.792)" fill="#fff"/>
        <path id="Path_45" data-name="Path 45" d="M77.185,73.738q9.45,0,18.9,0c2.119,0,2.78.561,2.782,2.333,0,1.9-.664,2.461-2.923,2.461q-18.856,0-37.711.007c-1.1,0-2.138-.163-2.525-1.084a2.758,2.758,0,0,1,.3-3.073,2.5,2.5,0,0,1,2.01-.646q9.585.014,19.17.006Z" transform="translate(-24.584 -32.731)" fill="#fff" fill-rule="evenodd"/>
        <path id="Path_46" data-name="Path 46" d="M77.185,93.888q9.45,0,18.9,0c2.119,0,2.78.561,2.782,2.333,0,1.9-.664,2.461-2.923,2.461q-18.856,0-37.711.007c-1.1,0-2.138-.163-2.525-1.084a2.759,2.759,0,0,1,.3-3.073,2.5,2.5,0,0,1,2.01-.646q9.585.014,19.17.006Z" transform="translate(-24.584 -41.676)" fill="#fff" fill-rule="evenodd"/>
        <path id="Path_47" data-name="Path 47" d="M66.434,115.064q4.79,0,9.58,0c1.074,0,1.409.561,1.41,2.333,0,1.9-.336,2.461-1.481,2.461q-9.557,0-19.114.007a1.162,1.162,0,0,1-1.28-1.084,5.047,5.047,0,0,1,.15-3.073.973.973,0,0,1,1.019-.646c3.239.009,6.478.006,9.717.006Z" transform="translate(-24.584 -51.076)" fill="#fff" fill-rule="evenodd"/>
      </g>
    </g>
    <rect id="Rectangle_220" data-name="Rectangle 220" width="128" height="90" transform="translate(389 991)" fill="none"/>
  </g>
</svg>
