<svg xmlns="http://www.w3.org/2000/svg" xmlns:xlink="http://www.w3.org/1999/xlink" width="128" height="90" viewBox="0 0 128 90">
  <defs>
    <clipPath id="clip-path">
      <rect id="Rectangle_121" data-name="Rectangle 121" width="128" height="79.418" fill="#fafafa"/>
    </clipPath>
  </defs>
  <g id="ic-case1" transform="translate(-389 -543)">
    <g id="Group_93" data-name="Group 93" transform="translate(389 548)">
      <g id="Group_92" data-name="Group 92" clip-path="url(#clip-path)">
        <path id="Path_30" data-name="Path 30" d="M88.154,193.079a15.482,15.482,0,0,1,5.08.745,16.521,16.521,0,0,1,2.683,1.216c.643.35,1.292.73,2,1.109a17.91,17.91,0,0,0,3.708,1.54,19.194,19.194,0,0,0,5.256.66,18.474,18.474,0,0,0,6.038-.9,19.544,19.544,0,0,0,3.16-1.424c.694-.38,1.337-.755,1.979-1.1a14.931,14.931,0,0,1,3.1-1.3,16.2,16.2,0,0,1,4.446-.549,15.483,15.483,0,0,1,5.081.745,16.56,16.56,0,0,1,2.684,1.216c.643.35,1.291.73,2,1.109a17.923,17.923,0,0,0,3.709,1.54,19.2,19.2,0,0,0,5.256.66,18.48,18.48,0,0,0,6.039-.9,19.511,19.511,0,0,0,3.16-1.424c.7-.38,1.337-.755,1.979-1.1a14.934,14.934,0,0,1,3.1-1.3,16.2,16.2,0,0,1,4.447-.549,1.5,1.5,0,1,0,0-2.995,18.492,18.492,0,0,0-6.039.9,19.572,19.572,0,0,0-3.16,1.424c-.695.38-1.337.755-1.979,1.1a14.937,14.937,0,0,1-3.1,1.3,16.2,16.2,0,0,1-4.447.549,15.472,15.472,0,0,1-5.081-.745,16.528,16.528,0,0,1-2.684-1.216c-.643-.35-1.292-.73-2-1.109a17.922,17.922,0,0,0-3.709-1.54,19.2,19.2,0,0,0-5.256-.66,18.487,18.487,0,0,0-6.039.9,19.521,19.521,0,0,0-3.159,1.425c-.695.379-1.337.755-1.979,1.1a14.931,14.931,0,0,1-3.1,1.3,16.2,16.2,0,0,1-4.446.549,15.471,15.471,0,0,1-5.08-.745,16.538,16.538,0,0,1-2.684-1.216c-.642-.35-1.291-.73-2-1.109a17.91,17.91,0,0,0-3.708-1.54,19.192,19.192,0,0,0-5.256-.66,1.5,1.5,0,1,0,0,2.995Z" transform="translate(-54.219 -118.931)" fill="#fafafa"/>
        <path id="Path_31" data-name="Path 31" d="M214.211,62.15a.886.886,0,0,0-.886-.886h-5.746a.886.886,0,0,0-.886.886v7.107a.873.873,0,0,0,.237.6,15.569,15.569,0,0,1,.739-1.553h6.544Z" transform="translate(-129.322 -38.331)" fill="#fafafa"/>
        <path id="Path_32" data-name="Path 32" d="M25.63,63.366A16.681,16.681,0,0,0,28.177,64.4a16.35,16.35,0,0,0,4.839.634,17.155,17.155,0,0,0,4.236-.468,13.475,13.475,0,0,0,1.608-.516c.522-7.879,1.832-22.857,4.605-30.985-.025-.024-.052-.045-.076-.069a2.923,2.923,0,0,1-.858-2.071V23.818a2.928,2.928,0,0,1,2.928-2.928h5.746a2.928,2.928,0,0,1,2.928,2.928v7.107a2.921,2.921,0,0,1-2.8,2.922c-.346,4.915-.792,14.273-.425,26.7a20.23,20.23,0,0,1,4.94.562,18.273,18.273,0,0,1,3.541,1.316c.675.324,1.293.648,1.9.946.383.187.763.363,1.154.527.524-7.839,1.814-22.456,4.513-30.583a2.9,2.9,0,0,1-1.235-2.386V23.818A2.928,2.928,0,0,1,68.66,20.89h5.746a2.929,2.929,0,0,1,2.929,2.928v7.107a2.923,2.923,0,0,1-2.41,2.88,278.621,278.621,0,0,0-.307,30.209c.427-.169.839-.352,1.249-.548.61-.292,1.221-.612,1.884-.936a19.772,19.772,0,0,1,3.018-1.218,19.33,19.33,0,0,1,5.51-.765c.632-8.084,1.9-19.936,4.2-27.037a2.925,2.925,0,0,1-1.551-2.584V23.818a2.929,2.929,0,0,1,2.929-2.928h5.746a2.928,2.928,0,0,1,2.928,2.928v7.107a2.924,2.924,0,0,1-2.02,2.783A277.976,277.976,0,0,0,98.2,63.926a13.988,13.988,0,0,0,1.318.473,16.348,16.348,0,0,0,4.839.634c.26,0,.508-.005.751-.013l7.481-50.772H36.465L37.492.263,31.122,0,21.744,61.581a20.8,20.8,0,0,1,1.982.839c.675.324,1.293.648,1.9.946" transform="translate(-13.605 0.001)" fill="#fafafa"/>
        <path id="Path_33" data-name="Path 33" d="M89.658,70.09a.888.888,0,0,0,.332-.206.878.878,0,0,0,.26-.627V62.15a.886.886,0,0,0-.886-.886H83.618a.886.886,0,0,0-.886.886V68.7c.069-.137.139-.27.21-.4h6.884s-.069.616-.167,1.788" transform="translate(-51.764 -38.331)" fill="#fafafa"/>
        <path id="Path_34" data-name="Path 34" d="M152.046,69.792a.871.871,0,0,0,.184-.535V62.15a.886.886,0,0,0-.886-.886H145.6a.886.886,0,0,0-.886.886v7.107a.89.89,0,0,0,.025.2c.184-.415.372-.8.567-1.157h6.884s-.057.512-.142,1.49" transform="translate(-90.543 -38.331)" fill="#fafafa"/>
        <path id="Path_35" data-name="Path 35" d="M255.476,63.464c.61-.292,1.221-.612,1.884-.936a19.77,19.77,0,0,1,3.018-1.218,19.512,19.512,0,0,1,5.751-.769,20.3,20.3,0,0,1,5.005.563,18.287,18.287,0,0,1,3.542,1.316c.4.194.786.387,1.16.576L273.105.263,261.652,0,251.8,64.727c.254-.049.5-.1.733-.161a15.135,15.135,0,0,0,2.947-1.1" transform="translate(-157.543 0.001)" fill="#fafafa"/>
        <rect id="Rectangle_120" data-name="Rectangle 120" width="76.447" height="4.228" transform="translate(21.991 7.907)" fill="#fafafa"/>
        <path id="Path_36" data-name="Path 36" d="M1.576,173.09a16.35,16.35,0,0,1,4.839.634,16.627,16.627,0,0,1,2.547,1.033c.611.3,1.229.622,1.9.946a18.284,18.284,0,0,0,3.541,1.316,20.3,20.3,0,0,0,5,.563,19.5,19.5,0,0,0,5.751-.769,19.764,19.764,0,0,0,3.017-1.218c.663-.324,1.275-.644,1.884-.936a15.118,15.118,0,0,1,2.946-1.1,17.129,17.129,0,0,1,4.236-.468,16.346,16.346,0,0,1,4.839.634,16.627,16.627,0,0,1,2.547,1.033c.611.3,1.229.622,1.9.946a18.288,18.288,0,0,0,3.541,1.316,20.292,20.292,0,0,0,5,.563,19.5,19.5,0,0,0,5.751-.769,19.774,19.774,0,0,0,3.018-1.218c.663-.324,1.274-.644,1.884-.936a15.122,15.122,0,0,1,2.946-1.1,17.133,17.133,0,0,1,4.236-.468,16.35,16.35,0,0,1,4.839.634,16.623,16.623,0,0,1,2.547,1.033c.611.3,1.229.622,1.9.946a18.284,18.284,0,0,0,3.541,1.316,20.3,20.3,0,0,0,5,.563,19.5,19.5,0,0,0,5.751-.769,19.775,19.775,0,0,0,3.018-1.218c.663-.324,1.275-.644,1.884-.936a15.13,15.13,0,0,1,2.947-1.1,17.134,17.134,0,0,1,4.237-.468,16.351,16.351,0,0,1,4.839.634,16.669,16.669,0,0,1,2.547,1.033c.611.3,1.229.622,1.9.946a18.28,18.28,0,0,0,3.541,1.316,20.3,20.3,0,0,0,5.005.563,1.576,1.576,0,0,0,0-3.152,16.353,16.353,0,0,1-4.84-.634,16.669,16.669,0,0,1-2.547-1.033c-.611-.3-1.229-.622-1.9-.946a18.276,18.276,0,0,0-3.541-1.316,20.3,20.3,0,0,0-5-.563,19.5,19.5,0,0,0-5.751.769,19.772,19.772,0,0,0-3.018,1.217c-.663.324-1.275.644-1.884.937a15.119,15.119,0,0,1-2.947,1.1,17.153,17.153,0,0,1-4.237.468,16.35,16.35,0,0,1-4.839-.634,16.66,16.66,0,0,1-2.547-1.033c-.611-.3-1.229-.622-1.9-.946a18.281,18.281,0,0,0-3.541-1.316,20.3,20.3,0,0,0-5-.563,19.5,19.5,0,0,0-5.751.769,19.751,19.751,0,0,0-3.018,1.217c-.663.324-1.275.644-1.884.937a15.124,15.124,0,0,1-2.946,1.1,17.15,17.15,0,0,1-4.236.468,16.347,16.347,0,0,1-4.838-.634,16.68,16.68,0,0,1-2.547-1.033c-.611-.3-1.229-.622-1.9-.946a18.29,18.29,0,0,0-3.541-1.316,20.3,20.3,0,0,0-5-.563,19.494,19.494,0,0,0-5.75.769,19.751,19.751,0,0,0-3.018,1.217c-.663.324-1.275.644-1.884.937a15.133,15.133,0,0,1-2.946,1.1,17.146,17.146,0,0,1-4.236.468,16.35,16.35,0,0,1-4.839-.634,16.68,16.68,0,0,1-2.547-1.033c-.61-.3-1.229-.622-1.9-.946A18.285,18.285,0,0,0,6.58,170.5a20.3,20.3,0,0,0-5-.563,1.576,1.576,0,1,0,0,3.152Z" transform="translate(0 -106.326)" fill="#fafafa"/>
      </g>
    </g>
    <rect id="Rectangle_218" data-name="Rectangle 218" width="128" height="90" transform="translate(389 543)" fill="none"/>
  </g>
</svg>
