<svg xmlns="http://www.w3.org/2000/svg" xmlns:xlink="http://www.w3.org/1999/xlink" width="89.677" height="84.833" viewBox="0 0 89.677 84.833">
  <defs>
    <clipPath id="clip-path">
      <rect id="Rectangle_75" data-name="Rectangle 75" width="74.669" height="67.819" transform="translate(0 0)" fill="#5454bb"/>
    </clipPath>
  </defs>
  <g id="icon-news" transform="translate(-58.489 -191.84)">
    <g id="Group_38" data-name="Group 38" transform="matrix(-0.966, -0.259, 0.259, -0.966, 130.614, 276.674)" clip-path="url(#clip-path)">
      <path id="Path_9" data-name="Path 9" d="M4.385,47.61A15.649,15.649,0,0,0,5.523,61.092c3.676,5.882,13.044,8.056,19.412,5.925a18.307,18.307,0,0,0,4.6-2.138c1.58-1.154,2.25-3.069,3.594-4.457,2.953-3.047,6.785-3.61,10.8-2.56,3.373.883,6.6,2.4,10.069,2.769s7.44-.746,9.071-3.827c.93-1.757.952-3.839,1.494-5.75,1.411-4.975,6.023-5.591,8.5-9.455a9.892,9.892,0,0,0,1.265-3.26,16.308,16.308,0,0,0-5.6-15.82c-1.319-1.06-2.807-1.91-4.021-3.089-2.775-2.694-1.251-5.35-2-8.649A14.289,14.289,0,0,0,52.688.376c-5.606-1.5-9.693,1.782-14.05,4.738-5.792,3.931-12.275,1.75-18.847,1.237-4.818-.376-10.174.3-13.469,3.833C3.365,13.357.531,16.454.064,21.013-.368,25.24,1.392,32.085,5.318,34.356c1.38.8,3.068,1.267,3.949,2.6,1.552,2.34-.22,4.639-1.951,6.253a11.908,11.908,0,0,0-2.931,4.4" transform="translate(0 0.001)" fill="#5454bb"/>
    </g>
    <text id="NEW" transform="translate(104.429 243.898)" fill="#fff" font-size="19" font-family="Meiryo-Bold, Meiryo" font-weight="700" letter-spacing="0.025em"><tspan x="-24.355" y="0">NEW</tspan></text>
  </g>
</svg>
