<svg xmlns="http://www.w3.org/2000/svg" xmlns:xlink="http://www.w3.org/1999/xlink" width="24" height="24" viewBox="0 0 24 24">
  <defs>
    <clipPath id="clip-path">
      <rect id="Rectangle_101" data-name="Rectangle 101" width="14" height="8" transform="translate(-0.2 0)" fill="#fff"/>
    </clipPath>
  </defs>
  <g id="icon-open" transform="translate(-6894 -3461)">
    <g id="Group_242" data-name="Group 242" transform="translate(6910 3466.2) rotate(90)">
      <g id="Group_71" data-name="Group 71" transform="translate(0 0)" clip-path="url(#clip-path)">
        <path id="Path_22" data-name="Path 22" d="M13.358,5.726C12.876,5.232,7.8.4,7.8.4A1.3,1.3,0,0,0,5.934.4S.857,5.232.374,5.726a1.409,1.409,0,0,0,0,1.913,1.261,1.261,0,0,0,1.866,0L6.866,3.2l4.626,4.436a1.261,1.261,0,0,0,1.866,0,1.408,1.408,0,0,0,0-1.913" transform="translate(0 0)" fill="#fff"/>
      </g>
    </g>
    <rect id="Rectangle_216" data-name="Rectangle 216" width="24" height="24" transform="translate(6894 3461)" fill="none"/>
  </g>
</svg>
