<svg xmlns="http://www.w3.org/2000/svg" xmlns:xlink="http://www.w3.org/1999/xlink" width="9" height="12" viewBox="0 0 9 12">
  <defs>
    <clipPath id="clip-path">
      <rect id="Rectangle_58" data-name="Rectangle 58" width="9" height="12" transform="translate(-0.165 0.44)" fill="#1770ac"/>
    </clipPath>
  </defs>
  <g id="icon-root" transform="translate(0.165 -0.44)">
    <g id="Group_10" data-name="Group 10" transform="translate(0 0)" clip-path="url(#clip-path)">
      <path id="Path_2" data-name="Path 2" d="M2.157.347C2.615.8,7.1,5.506,7.1,5.506a1.2,1.2,0,0,1,0,1.731s-4.487,4.711-4.945,5.158a1.308,1.308,0,0,1-1.775,0,1.17,1.17,0,0,1,0-1.731L4.5,6.371.382,2.078a1.17,1.17,0,0,1,0-1.731,1.308,1.308,0,0,1,1.775,0" transform="translate(0.292 0.512)" fill="#1770ac"/>
    </g>
  </g>
</svg>
