<svg id="icon-prev-white" xmlns="http://www.w3.org/2000/svg" xmlns:xlink="http://www.w3.org/1999/xlink" width="52" height="52" viewBox="0 0 52 52">
  <defs>
    <clipPath id="clip-path">
      <rect id="Rectangle_58" data-name="Rectangle 58" width="14" height="23" transform="translate(-0.431 -0.004)" fill="#1770ac"/>
    </clipPath>
  </defs>
  <circle id="Ellipse_2" data-name="Ellipse 2" cx="26" cy="26" r="26" transform="translate(52 52) rotate(180)" fill="#fff"/>
  <g id="Group_11" data-name="Group 11" transform="translate(31.723 36.496) rotate(180)">
    <g id="Group_10" data-name="Group 10" transform="translate(0.154 -0.5)" clip-path="url(#clip-path)">
      <path id="Path_2" data-name="Path 2" d="M3.743.6c.8.777,8.583,8.953,8.583,8.953a2.088,2.088,0,0,1,0,3s-7.787,8.176-8.583,8.953a2.27,2.27,0,0,1-3.081,0,2.03,2.03,0,0,1,0-3l7.143-7.451L.663,3.607a2.031,2.031,0,0,1,0-3A2.27,2.27,0,0,1,3.743.6" transform="translate(-0.168 0.548)" fill="#1770ac"/>
    </g>
  </g>
</svg>
