<svg xmlns="http://www.w3.org/2000/svg" xmlns:xlink="http://www.w3.org/1999/xlink" width="92" height="92" viewBox="0 0 92 92">
  <defs>
    <clipPath id="clip-path">
      <rect id="Rectangle_173" data-name="Rectangle 173" width="72.611" height="59.329" fill="#014674"/>
    </clipPath>
  </defs>
  <g id="icon-flood" transform="translate(0 -0.394)">
    <rect id="Rectangle_190" data-name="Rectangle 190" width="92" height="92" transform="translate(0 0.394)" fill="none"/>
    <g id="Group_199" data-name="Group 199" transform="translate(9.891 16.169)">
      <g id="Group_164" data-name="Group 164" transform="translate(0 0)" clip-path="url(#clip-path)">
        <path id="Path_60" data-name="Path 60" d="M7.471,15.349c6.907-5.925,12.35-10.62,27.145-2.254,7.109,4.014,12.84,5.528,17.611,5.528,8.361,0,13.775-4.648,18.458-8.667a4.1,4.1,0,0,0,.482-5.688A3.9,3.9,0,0,0,65.6,3.778C58.693,9.707,53.242,14.395,38.439,6.029,18.895-5.015,9.734,2.855,2.379,9.174A4.1,4.1,0,0,0,1.9,14.859a3.9,3.9,0,0,0,5.574.49" transform="translate(-0.224 -0.115)" fill="#014674"/>
        <path id="Path_61" data-name="Path 61" d="M7.833,15.326c3.228-2.769,6.648-5.852,11.04-6.4,6.759-.845,12.7,3.489,18.466,6.249C43,17.885,49.387,19.682,55.684,18.54a24.514,24.514,0,0,0,8.66-3.439A40.725,40.725,0,0,0,71.3,9.7a4.3,4.3,0,0,0-1.1-6.922A5.03,5.03,0,0,0,66.351,2.7a10.6,10.6,0,0,0-3.021,2.141c-3.35,2.823-6.937,5.353-11.507,5.241C44.69,9.9,38.865,5.083,32.508,2.516,27.319.42,21.657-.658,16.117.536A27.883,27.883,0,0,0,4.858,6.243c-.769.606-1.521,1.234-2.268,1.869A7.237,7.237,0,0,0,.333,10.666a4.29,4.29,0,0,0,3.814,5.891,5.493,5.493,0,0,0,3.686-1.231c.632-.507-.845-.427-1.171-.164a3.029,3.029,0,0,1-4.295-.684,3.994,3.994,0,0,1-.446-4.265A8.618,8.618,0,0,1,4.283,7.836c.71-.6,1.427-1.186,2.163-1.753A23.9,23.9,0,0,1,17.088,1.021C22.693.115,28.372,1.76,33.428,4.1c5.7,2.636,10.973,6.446,17.472,6.716A17.394,17.394,0,0,0,62,7c.832-.615,1.635-1.27,2.427-1.936C65.4,4.245,66.407,3.019,67.79,3.1a3.733,3.733,0,0,1,3.226,2.913A4.026,4.026,0,0,1,69.5,10.092c-4.576,3.92-9.488,7.57-15.72,8-6.252.435-12.4-1.963-17.8-4.888-5.012-2.714-10.4-5.577-16.3-5.056-4.05.358-7.485,2.435-10.574,4.947-.828.674-1.638,1.37-2.448,2.065-.62.531.851.439,1.171.164" transform="translate(0 -0.009)" fill="#014674"/>
        <path id="Path_62" data-name="Path 62" d="M65.6,29.982c-6.907,5.929-12.358,10.611-27.162,2.259C18.895,21.194,9.734,29.06,2.379,35.379A4.1,4.1,0,0,0,1.9,41.064a3.9,3.9,0,0,0,5.574.494c6.907-5.934,12.35-10.617,27.145-2.263,7.109,4.022,12.84,5.54,17.611,5.54,8.361,0,13.774-4.656,18.458-8.678a4.1,4.1,0,0,0,.481-5.685,3.889,3.889,0,0,0-5.566-.49" transform="translate(-0.224 -6.144)" fill="#014674"/>
        <path id="Path_63" data-name="Path 63" d="M64.79,29.721c-3.229,2.773-6.656,5.832-11.051,6.382-6.782.848-12.7-3.449-18.486-6.223-5.323-2.549-11.27-4.306-17.218-3.561a25.43,25.43,0,0,0-11.85,5.043c-1.571,1.156-3.1,2.4-4.553,3.7A4.411,4.411,0,0,0,1.99,42.1a4.844,4.844,0,0,0,3.994.48,8.907,8.907,0,0,0,3.108-2.076A31.876,31.876,0,0,1,14.33,36.7c4.674-2.552,9.82-1.633,14.533.367,3.7,1.571,7.07,3.8,10.781,5.353a34.462,34.462,0,0,0,9.011,2.522,24.37,24.37,0,0,0,17.491-4.8c1.171-.845,2.3-1.751,3.4-2.681A8.485,8.485,0,0,0,72.3,34.45a4.373,4.373,0,0,0-3.748-5.966,5.35,5.35,0,0,0-3.765,1.237c-.281.226-.1.438.146.545a1.234,1.234,0,0,0,1.052-.282,3.036,3.036,0,0,1,4.278.653,3.907,3.907,0,0,1,.366,4.346,12.421,12.421,0,0,1-3.071,2.87,42.867,42.867,0,0,1-3.44,2.586,22.052,22.052,0,0,1-8.362,3.532,22.637,22.637,0,0,1-8.7-.285,39.45,39.45,0,0,1-9.149-3.336c-3.271-1.623-6.35-3.553-9.811-4.776-4.3-1.519-8.879-1.954-13.146-.11a23.351,23.351,0,0,0-5.014,3.1c-.8.623-1.581,1.277-2.354,1.935-1.157.986-2.264,1.863-3.851,1.176A3.814,3.814,0,0,1,1.523,37.9,4.627,4.627,0,0,1,3.53,34.727c1.418-1.211,2.853-2.406,4.383-3.473A21.938,21.938,0,0,1,19.22,27.042c6.121-.349,12.136,2.019,17.422,4.884,5.015,2.719,10.417,5.571,16.316,5.086,4.058-.334,7.493-2.452,10.581-4.963.828-.674,1.638-1.37,2.448-2.065.272-.233.112-.435-.146-.545a1.223,1.223,0,0,0-1.052.282" transform="translate(-0.013 -6.015)" fill="#014674"/>
        <path id="Path_64" data-name="Path 64" d="M65.6,56.189c-6.907,5.926-12.358,10.621-27.162,2.254C18.895,47.4,9.734,55.267,2.379,61.581A4.11,4.11,0,0,0,1.9,67.27a3.907,3.907,0,0,0,5.574.494c6.907-5.934,12.35-10.615,27.145-2.263,7.109,4.015,12.84,5.537,17.611,5.537,8.361,0,13.774-4.648,18.458-8.674a4.1,4.1,0,0,0,.481-5.684,3.888,3.888,0,0,0-5.566-.492" transform="translate(-0.224 -12.173)" fill="#014674"/>
        <path id="Path_65" data-name="Path 65" d="M64.778,55.875c-3.226,2.768-6.665,5.822-11.055,6.371-6.732.84-12.58-3.356-18.323-6.128-5.366-2.589-11.37-4.413-17.382-3.659A25.36,25.36,0,0,0,6.243,57.453c-1.578,1.156-3.091,2.415-4.56,3.707a4.485,4.485,0,0,0,.2,7.089,4.79,4.79,0,0,0,3.862.647,8.1,8.1,0,0,0,3.2-2.029,32.373,32.373,0,0,1,5.311-3.884c4.63-2.534,9.691-1.739,14.4.212,3.687,1.528,7.027,3.747,10.7,5.312a35.565,35.565,0,0,0,9.115,2.64A24.167,24.167,0,0,0,65.94,66.537c1.181-.839,2.309-1.749,3.419-2.68a9.194,9.194,0,0,0,2.9-3.077,4.433,4.433,0,0,0-3.466-6.119,5.111,5.111,0,0,0-3.881,1.1c-.785.632.438.972.954.557,2.952-2.378,6.357,1.587,4.882,4.594-.591,1.206-1.983,2.09-3,2.929-1.1.91-2.235,1.788-3.419,2.591a22.575,22.575,0,0,1-8.339,3.627,22.214,22.214,0,0,1-8.683-.173,39.072,39.072,0,0,1-9.246-3.3c-3.2-1.572-6.213-3.457-9.567-4.711-4.369-1.633-9.088-2.173-13.471-.31a22.779,22.779,0,0,0-5.038,3.1c-.821.641-1.618,1.31-2.41,1.985-1.089.929-2.108,1.77-3.63,1.262a3.714,3.714,0,0,1-2.428-3.683,4.442,4.442,0,0,1,1.956-3.228c1.415-1.21,2.851-2.4,4.376-3.466a22.1,22.1,0,0,1,11.273-4.25c6.153-.4,12.21,1.973,17.523,4.85,5.015,2.716,10.424,5.6,16.324,5.118,4.071-.334,7.508-2.468,10.6-4.995.821-.671,1.625-1.36,2.429-2.05.273-.235.1-.511-.166-.621a1.14,1.14,0,0,0-1.052.282" transform="translate(-0.011 -12.029)" fill="#014674"/>
      </g>
    </g>
  </g>
</svg>
