<svg xmlns="http://www.w3.org/2000/svg" xmlns:xlink="http://www.w3.org/1999/xlink" width="40" height="40" viewBox="0 0 40 40">
  <defs>
    <filter id="Ellipse_110" x="0" y="0" width="40" height="40" filterUnits="userSpaceOnUse">
      <feOffset dy="1" input="SourceAlpha"/>
      <feGaussianBlur stdDeviation="1.5" result="blur"/>
      <feFlood flood-opacity="0.161"/>
      <feComposite operator="in" in2="blur"/>
      <feComposite in="SourceGraphic"/>
    </filter>
    <clipPath id="clip-path">
      <rect id="Rectangle_150" data-name="Rectangle 150" width="18" height="18" transform="translate(0.048 0.048)" fill="#1770ac"/>
    </clipPath>
  </defs>
  <g id="icon-input-search" transform="translate(-1302.5 -605.5)">
    <g transform="matrix(1, 0, 0, 1, 1302.5, 605.5)" filter="url(#Ellipse_110)">
      <circle id="Ellipse_110-2" data-name="Ellipse 110" cx="15.5" cy="15.5" r="15.5" transform="translate(4.5 3.5)" fill="#fff"/>
    </g>
    <g id="Group_129" data-name="Group 129" transform="translate(1313.952 615.952)">
      <g id="Group_128" data-name="Group 128" clip-path="url(#clip-path)">
        <path id="Path_53" data-name="Path 53" d="M17.1,14.8l-4.185-4.185a6.818,6.818,0,0,0,.994-3.557A7.217,7.217,0,0,0,6.85,0,6.851,6.851,0,0,0,0,6.851a7.217,7.217,0,0,0,7.062,7.062,6.817,6.817,0,0,0,3.449-.932l4.208,4.208a1.054,1.054,0,0,0,1.491,0l1.044-1.043c.412-.412.262-.93-.149-1.342m-15-7.952A4.743,4.743,0,0,1,6.85,2.108,5.111,5.111,0,0,1,11.8,7.062a4.743,4.743,0,0,1-4.743,4.743A5.111,5.111,0,0,1,2.108,6.851" transform="translate(0.001 0)" fill="#1770ac"/>
      </g>
    </g>
  </g>
</svg>
