<svg xmlns="http://www.w3.org/2000/svg" xmlns:xlink="http://www.w3.org/1999/xlink" width="40" height="40" viewBox="0 0 40 40">
  <defs>
    <clipPath id="clip-path">
      <rect id="Rectangle_90" data-name="Rectangle 90" width="23" height="23" fill="#0b7b7b"/>
    </clipPath>
  </defs>
  <g id="icon-search" transform="translate(-4312 -3741)">
    <rect id="Rectangle_199" data-name="Rectangle 199" width="40" height="40" transform="translate(4312 3741)" fill="none"/>
    <g id="Group_228" data-name="Group 228" transform="translate(4321.335 3750.335)">
      <g id="Group_49" data-name="Group 49" transform="translate(-0.335 -0.335)" clip-path="url(#clip-path)">
        <path id="Path_11" data-name="Path 11" d="M21.721,18.8l-5.315-5.315A8.658,8.658,0,0,0,17.67,8.968,9.166,9.166,0,0,0,8.7,0,8.7,8.7,0,0,0,0,8.7,9.166,9.166,0,0,0,8.969,17.67a8.658,8.658,0,0,0,4.381-1.184l5.343,5.343a1.339,1.339,0,0,0,1.893,0L21.913,20.5c.523-.523.333-1.181-.19-1.7M2.677,8.7A6.023,6.023,0,0,1,8.7,2.677,6.491,6.491,0,0,1,15,8.968,6.024,6.024,0,0,1,8.968,15,6.491,6.491,0,0,1,2.677,8.7" transform="translate(0.366 0.365)" fill="#0b7b7b"/>
      </g>
    </g>
  </g>
</svg>
