<svg xmlns="http://www.w3.org/2000/svg" width="40.593" height="57.076" viewBox="0 0 40.593 57.076">
  <g id="icon-map-locate" transform="translate(-1210.885 -631.39)">
    <g id="place_black_24dp" transform="translate(1213.385 633.89)">
      <path id="Path_99" data-name="Path 99" d="M22.8,2A17.783,17.783,0,0,0,5,19.8c0,13.347,17.8,33.05,17.8,33.05s17.8-19.7,17.8-33.05A17.783,17.783,0,0,0,22.8,2Zm0,24.152A6.356,6.356,0,1,1,29.152,19.8,6.358,6.358,0,0,1,22.8,26.152Z" transform="translate(-5 -2)" fill="#d43624"/>
      <path id="Path_99_-_Outline" data-name="Path 99 - Outline" d="M22.8-.5a20.272,20.272,0,0,1,20.3,20.3c0,6.043-3.138,13.757-9.326,22.929a116.972,116.972,0,0,1-9.115,11.8L22.8,56.576l-1.855-2.054a116.972,116.972,0,0,1-9.115-11.8C5.638,33.553,2.5,25.839,2.5,19.8A20.272,20.272,0,0,1,22.8-.5Zm0,49.5c4.437-5.346,15.3-19.429,15.3-29.207A15.3,15.3,0,0,0,7.5,19.8c0,4.957,2.929,11.919,8.471,20.132C18.54,43.737,21.123,46.991,22.795,49Zm0-38.063A8.856,8.856,0,1,1,13.94,19.8,8.866,8.866,0,0,1,22.8,10.94Zm0,12.712A3.856,3.856,0,1,0,18.94,19.8,3.86,3.86,0,0,0,22.8,23.652Z" transform="translate(-5 -2)" fill="#fff"/>
    </g>
    <ellipse id="Ellipse_117" data-name="Ellipse 117" cx="5.5" cy="6" rx="5.5" ry="6" transform="translate(1226 645.947)" fill="#fff"/>
  </g>
</svg>
