<svg xmlns="http://www.w3.org/2000/svg" width="66" height="65.5" viewBox="0 0 66 65.5">
  <g id="icon-seed" transform="translate(-677 -647)">
    <g id="Group_1" data-name="Group 1" transform="translate(-0.484 0.5)">
      <g id="surface1" transform="translate(696 650.5)">
        <path id="Path_58" data-name="Path 58" d="M15.632.374a1.421,1.421,0,0,0-1.921,0C13.151.96,0,14.921,0,22.737a14.672,14.672,0,0,0,29.344,0C29.344,14.921,16.192.96,15.632.374Zm0,0" fill="#b9dd39"/>
        <path id="Path_59" data-name="Path 59" d="M179.77,22.737A14.7,14.7,0,0,1,165.1,37.408V0a1.446,1.446,0,0,1,.96.374C166.618.96,179.77,14.921,179.77,22.737Zm0,0" transform="translate(-150.426)" fill="#a8d32a"/>
        <path id="Path_60" data-name="Path 60" d="M78.309,133.708l-7.6,7.629V154.2a1.334,1.334,0,1,1-2.667,0V141.337l-7.6-7.629a1.32,1.32,0,0,1,1.867-1.867l5.735,5.709v-4.215L63.1,128.373a1.32,1.32,0,1,1,1.867-1.868l3.068,3.041V122.1a1.334,1.334,0,1,1,2.668,0v7.442l3.068-3.041a1.32,1.32,0,0,1,1.867,1.867l-4.935,4.962v4.215l5.735-5.709a1.32,1.32,0,1,1,1.867,1.867Zm0,0" transform="translate(-54.701 -110.037)" fill="#a8d32a"/>
        <path id="Path_61" data-name="Path 61" d="M174.034,133.708l-7.6,7.629V154.2a1.321,1.321,0,0,1-1.334,1.334V120.77a1.321,1.321,0,0,1,1.334,1.334v7.442l3.068-3.041a1.32,1.32,0,0,1,1.867,1.867l-4.935,4.962v4.215l5.735-5.709a1.32,1.32,0,0,1,1.867,1.867Zm0,0" transform="translate(-150.426 -110.037)" fill="#93bf00"/>
      </g>
      <path id="Path_62" data-name="Path 62" d="M64.8,363.9a9.329,9.329,0,0,1-1.508-.812,12.54,12.54,0,0,0-13.857,0,8.6,8.6,0,0,1-9.475,0A12.642,12.642,0,0,0,33,361a12.118,12.118,0,0,0-6.768,2.088,8.6,8.6,0,0,1-9.475,0,12.54,12.54,0,0,0-13.857,0,2.436,2.436,0,0,1-1.121.387A1.938,1.938,0,0,0,0,365.408v13.123a1.914,1.914,0,0,0,1.934,1.934H64.066A1.914,1.914,0,0,0,66,378.531V365.679A1.891,1.891,0,0,0,64.8,363.9Zm0,0" transform="translate(677.484 331.535)" fill="#7e5d40"/>
      <path id="Path_63" data-name="Path 63" d="M289,365.679v12.852a1.914,1.914,0,0,1-1.934,1.934H256V361a12.642,12.642,0,0,1,6.961,2.088,8.6,8.6,0,0,0,9.475,0,12.54,12.54,0,0,1,13.857,0,9.35,9.35,0,0,0,1.508.812A1.891,1.891,0,0,1,289,365.679Zm0,0" transform="translate(454.484 331.535)" fill="#684d34"/>
      <path id="Path_67" data-name="Path 67" d="M66.8,424.867H62.934a1.934,1.934,0,0,1,0-3.867H66.8a1.934,1.934,0,0,1,0,3.867Zm0,0" transform="translate(624.348 279.27)" fill="#5c442f"/>
      <path id="Path_64" data-name="Path 64" d="M396.8,424.867h-3.867a1.934,1.934,0,0,1,0-3.867H396.8a1.934,1.934,0,0,1,0,3.867Zm0,0" transform="translate(336.887 279.27)" fill="#4c3828"/>
      <path id="Path_65" data-name="Path 65" d="M233.734,422.934a1.914,1.914,0,0,1-1.934,1.934h-3.867a1.934,1.934,0,0,1,0-3.867H231.8A1.914,1.914,0,0,1,233.734,422.934Zm0,0" transform="translate(480.617 279.27)" fill="#5c442f"/>
      <path id="Path_66" data-name="Path 66" d="M259.867,422.934a1.914,1.914,0,0,1-1.934,1.934H256V421h1.934A1.914,1.914,0,0,1,259.867,422.934Zm0,0" transform="translate(454.484 279.27)" fill="#4c3828"/>
    </g>
    <rect id="Rectangle_2" data-name="Rectangle 2" width="65" height="65" transform="translate(678 647)" fill="none"/>
  </g>
</svg>
