<svg xmlns="http://www.w3.org/2000/svg" width="24" height="24" viewBox="0 0 24 24">
  <g id="icon-fax" transform="translate(-2924 -5685)">
    <g id="print_black_24dp" transform="translate(2924 5685)">
      <path id="Path_590" data-name="Path 590" d="M0,0H24V24H0Z" fill="none"/>
      <path id="Path_591" data-name="Path 591" d="M19,8H5a3,3,0,0,0-3,3v6H6v4H18V17h4V11A3,3,0,0,0,19,8ZM16,19H8V14h8Zm3-7a1,1,0,1,1,1-1A1,1,0,0,1,19,12ZM18,3H6V7H18Z" fill="#d6efff"/>
    </g>
    <rect id="Rectangle_218" data-name="Rectangle 218" width="24" height="24" transform="translate(2924 5685)" fill="none"/>
  </g>
</svg>
