<svg xmlns="http://www.w3.org/2000/svg" xmlns:xlink="http://www.w3.org/1999/xlink" width="40" height="40" viewBox="0 0 40 40">
  <defs>
    <clipPath id="clip-path">
      <rect id="Rectangle_177" data-name="Rectangle 177" width="32.554" height="25.059" fill="#0b7b7b"/>
    </clipPath>
  </defs>
  <g id="icon-area" transform="translate(-4312 -3738)">
    <rect id="Rectangle_199" data-name="Rectangle 199" width="40" height="40" transform="translate(4312 3738)" fill="none"/>
    <g id="Group_227" data-name="Group 227" transform="translate(4316 3745)">
      <rect id="Rectangle_175" data-name="Rectangle 175" width="32.554" height="3.389" transform="translate(0 21.67)" fill="#0b7b7b"/>
      <path id="Path_73" data-name="Path 73" d="M9.195,179.012H22.944v-2.676H16.512L13.8,168.978H1.168l3.939,10.034Z" transform="translate(-1.094 -158.234)" fill="#0b7b7b"/>
      <rect id="Rectangle_176" data-name="Rectangle 176" width="1.695" height="1.309" transform="translate(22.489 10.164)" fill="#0b7b7b"/>
      <g id="Group_173" data-name="Group 173">
        <g id="Group_172" data-name="Group 172" clip-path="url(#clip-path)">
          <path id="Path_74" data-name="Path 74" d="M255.172,177.863v3.826h9.478c-.5-4.7-2.772-9.1-4.333-9.622a4.619,4.619,0,0,1-.547-.23l-3.19,3.926-.226-2.574h-1.695l-.226,2.574-3.185-3.926a3.8,3.8,0,0,1-.553.23c-.83.259-1.913,2.259-2.76,4.552l.455,1.245Z" transform="translate(-232.171 -160.91)" fill="#0b7b7b"/>
          <path id="Path_75" data-name="Path 75" d="M300.492,4.476A4.476,4.476,0,1,1,296.015,0a4.476,4.476,0,0,1,4.476,4.476" transform="translate(-273.002)" fill="#0b7b7b"/>
          <path id="Path_76" data-name="Path 76" d="M287.3,152.925s4.148-3.753,10.281,0l-4.1,4.711-5.505-.718Z" transform="translate(-269.031 -141.64)" fill="#0b7b7b"/>
        </g>
      </g>
    </g>
  </g>
</svg>
