<svg xmlns="http://www.w3.org/2000/svg" xmlns:xlink="http://www.w3.org/1999/xlink" width="30" height="30" viewBox="0 0 30 30">
  <defs>
    <clipPath id="clip-path">
      <rect id="Rectangle_96" data-name="Rectangle 96" width="20" height="20" transform="translate(0 0)" fill="#1770ac"/>
    </clipPath>
  </defs>
  <g id="icon-login" transform="translate(-1521 -25)">
    <g id="Group_58" data-name="Group 58" transform="translate(1526 30)">
      <g id="Group_57" data-name="Group 57" transform="translate(0 0)" clip-path="url(#clip-path)">
        <path id="Path_18" data-name="Path 18" d="M0,10A10,10,0,1,1,10.126,20,10,10,0,0,1,0,10m10.133,8.937c.248-.02.632-.035,1.011-.084a8.835,8.835,0,0,0,5.048-2.417.149.149,0,0,0,.039-.2,6.747,6.747,0,0,0-7.156-4.02A6.651,6.651,0,0,0,3.78,16.205a.184.184,0,0,0,.052.252,9.021,9.021,0,0,0,6.3,2.477M10,11.071A3.572,3.572,0,1,0,6.428,7.5,3.578,3.578,0,0,0,10,11.071" transform="translate(0 0)" fill="#1770ac" fill-rule="evenodd"/>
      </g>
    </g>
    <g id="Group_58-2" data-name="Group 58" transform="translate(1526 30)">
      <g id="Group_57-2" data-name="Group 57" transform="translate(0 0)" clip-path="url(#clip-path)">
        <path id="Path_18-2" data-name="Path 18" d="M0,10A10,10,0,1,1,10.126,20,10,10,0,0,1,0,10m10.133,8.937c.248-.02.632-.035,1.011-.084a8.835,8.835,0,0,0,5.048-2.417.149.149,0,0,0,.039-.2,6.747,6.747,0,0,0-7.156-4.02A6.651,6.651,0,0,0,3.78,16.205a.184.184,0,0,0,.052.252,9.021,9.021,0,0,0,6.3,2.477M10,11.071A3.572,3.572,0,1,0,6.428,7.5,3.578,3.578,0,0,0,10,11.071" transform="translate(0 0)" fill="#1770ac" fill-rule="evenodd"/>
      </g>
    </g>
    <rect id="Rectangle_198" data-name="Rectangle 198" width="30" height="30" transform="translate(1521 25)" fill="none"/>
  </g>
</svg>
