<svg xmlns="http://www.w3.org/2000/svg" xmlns:xlink="http://www.w3.org/1999/xlink" width="25" height="25" viewBox="0 0 25 25">
  <defs>
    <clipPath id="clip-path">
      <rect id="Rectangle_73" data-name="Rectangle 73" width="25" height="25" fill="#0b7b7b"/>
    </clipPath>
  </defs>
  <g id="icon-set-third" transform="translate(-0.206 -0.206)">
    <g id="Group_36" data-name="Group 36" transform="translate(0.206 0.206)" clip-path="url(#clip-path)">
      <path id="Path_8" data-name="Path 8" d="M23.007,12.728a4.334,4.334,0,0,1,2.448-3.7,13.384,13.384,0,0,0-1.048-2.533A4.1,4.1,0,0,1,20.3,5.156a3.961,3.961,0,0,1-1.034-4.108A13.36,13.36,0,0,0,16.732,0a4.8,4.8,0,0,1-4,2.448A4.8,4.8,0,0,1,8.724,0,13.384,13.384,0,0,0,6.191,1.048,3.963,3.963,0,0,1,5.156,5.156,4.1,4.1,0,0,1,1.048,6.494,13.362,13.362,0,0,0,0,9.027a4.334,4.334,0,0,1,2.448,3.7,4.8,4.8,0,0,1-2.448,4,13.379,13.379,0,0,0,1.048,2.534A3.962,3.962,0,0,1,5.156,20.3a3.962,3.962,0,0,1,1.034,4.108,13.338,13.338,0,0,0,2.533,1.048,4.8,4.8,0,0,1,4-2.448,4.8,4.8,0,0,1,4,2.448,13.351,13.351,0,0,0,2.534-1.049A3.961,3.961,0,0,1,20.3,20.3a4.1,4.1,0,0,1,4.108-1.337,13.378,13.378,0,0,0,1.048-2.534,4.334,4.334,0,0,1-2.448-3.7m-10.28,5.535a5.535,5.535,0,1,1,5.535-5.535,5.535,5.535,0,0,1-5.535,5.535" transform="translate(-0.228 -0.228)" fill="#0b7b7b"/>
    </g>
  </g>
</svg>
