<svg xmlns="http://www.w3.org/2000/svg" xmlns:xlink="http://www.w3.org/1999/xlink" width="84.82" height="72" viewBox="0 0 84.82 72">
  <defs>
    <clipPath id="clip-path">
      <rect id="Rectangle_178" data-name="Rectangle 178" width="84.82" height="72" fill="#fff"/>
    </clipPath>
  </defs>
  <g id="logo" transform="translate(0 0)">
    <g id="Group_175" data-name="Group 175" transform="translate(0 0)" clip-path="url(#clip-path)">
      <path id="Path_77" data-name="Path 77" d="M12.91,38.9,38.858,17.817s3.413-2.208,12.648,4.015c0,0-2.409-1.606-7.026,1.405L14.515,47.127H11.7V38.7Z" transform="translate(-1.718 -2.559)" fill="#fff"/>
      <path id="Path_78" data-name="Path 78" d="M76,23.45H57.846s-4.217-.8-7.027,1.807L23.441,47.415H37.985L57.132,31.079,76,31.23Z" transform="translate(-3.441 -3.425)" fill="#fff"/>
      <path id="Path_79" data-name="Path 79" d="M71.781,19.417v8.132l.02.2h2.59l.02-.2V18.658a1.315,1.315,0,0,0-.658-1.139L43.716.177a1.312,1.312,0,0,0-1.315,0L12.363,17.519a1.315,1.315,0,0,0-.658,1.139V41.632a1.316,1.316,0,1,0,2.631,0V19.417L43.059,2.834Z" transform="translate(-1.718 0)" fill="#fff"/>
      <path id="Path_80" data-name="Path 80" d="M69.752,62.631,43.058,78.042,13.678,61.08a1.316,1.316,0,0,0-1.316,2.279L42.4,80.7a1.318,1.318,0,0,0,1.316,0L73.1,63.736c8.58-6.429-1.15-1.428-3.349-1.1" transform="translate(-1.718 -8.877)" fill="#fff"/>
      <path id="Path_81" data-name="Path 81" d="M0,65.193c10.669-9.969,31.542-7.329,44.488-3.658a82.414,82.414,0,0,0,18.8-.579,48.733,48.733,0,0,0,18.318-6.6c-4.519,5.192-10.884,8.558-17.476,10.4a56.111,56.111,0,0,1-21.006,1.689C30.772,63.22,11.837,59.2,0,65.193" transform="translate(0 -7.978)" fill="#fff"/>
      <path id="Path_82" data-name="Path 82" d="M3.765,54.37c10.669-9.969,31.542-7.329,44.488-3.658a82.424,82.424,0,0,0,18.8-.579,48.734,48.734,0,0,0,18.317-6.6c-4.519,5.192-10.884,8.558-17.476,10.4A56.111,56.111,0,0,1,46.89,55.618C34.537,52.4,15.6,48.379,3.765,54.37" transform="translate(-0.553 -6.39)" fill="#fff"/>
      <path id="Path_83" data-name="Path 83" d="M71.349,40.12c-.077,2.617-.148,5-.217,7.39-.056,1.969-.055,3.942-.175,5.907a7.321,7.321,0,0,1-4.688,6.706,7.228,7.228,0,0,1-7.993-1.278A7.333,7.333,0,0,1,55.9,51.016a6.734,6.734,0,0,1,3.237-4.388c3.966-2.2,8-4.273,12.209-6.507" transform="translate(-8.162 -5.889)" fill="#fff"/>
      <path id="Path_84" data-name="Path 84" d="M88.413,28.817c-.055,1.863-.106,3.563-.154,5.263-.04,1.4-.038,2.807-.125,4.206A5.214,5.214,0,0,1,84.8,43.063a5.147,5.147,0,0,1-5.693-.91,5.221,5.221,0,0,1-1.69-5.576,4.794,4.794,0,0,1,2.305-3.125c2.824-1.564,5.7-3.043,8.7-4.635" transform="translate(-11.332 -4.23)" fill="#fff"/>
    </g>
  </g>
</svg>
