<svg xmlns="http://www.w3.org/2000/svg" width="1921.5" height="263.999" viewBox="0 0 1921.5 263.999">
  <g id="wave-middle" transform="translate(1861 242.94)">
    <g id="wave-1" transform="translate(-1860.5 -242.44)" opacity="0.42">
      <path id="Subtraction_1" data-name="Subtraction 1" d="M1920.5,263H0V1.06C24.642.356,49.53,0,73.971,0c25.1,0,50.43.376,75.3,1.117,25.86.771,51.933,1.958,77.494,3.529,26.524,1.63,53.247,3.719,79.425,6.209,27.112,2.579,54.394,5.66,81.09,9.157,27.6,3.616,55.354,7.779,82.485,12.373,28.007,4.743,56.138,10.078,83.613,15.857C581.7,54.2,610.12,60.8,637.848,67.851c28.546,7.261,57.167,15.211,85.067,23.629.153.05,15.6,5.1,43.974,12.592,16.6,4.386,34.288,8.728,52.558,12.906,22.835,5.222,46.654,10.2,70.8,14.8,61.451,11.7,125.336,21.018,189.879,27.7,38.322,3.969,77.306,7.04,115.87,9.129,42.417,2.3,85.375,3.463,127.682,3.463,206.022,0,406.824-27.114,596.828-80.587V263Z" fill="#2da2f1" stroke="rgba(0,0,0,0)" stroke-miterlimit="10" stroke-width="1"/>
    </g>
    <g id="Group_260" data-name="Group 260" transform="translate(-1860.001 -178.44)" opacity="0.1">
      <path id="Subtraction_2" data-name="Subtraction 2" d="M1920,198.5H0V81.044c144.1,47.374,296.39,71.4,452.642,71.4,32.085,0,64.67-1.032,96.847-3.068,29.246-1.851,58.814-4.571,87.883-8.087,48.957-5.923,97.407-14.18,144.005-24.542,18.313-4.072,36.376-8.482,53.688-13.107,13.853-3.7,27.262-7.548,39.855-11.435,20.995-6.479,32.844-10.965,33.338-11.153l.007,0c21.15-7.455,42.855-14.5,64.514-20.933,21.025-6.247,42.582-12.092,64.072-17.372,20.843-5.121,42.182-9.847,63.424-14.048,20.583-4.07,41.635-7.758,62.572-10.961,20.252-3.1,40.948-5.828,61.514-8.113,19.855-2.206,40.126-4.057,60.251-5.5C1322.664,1.385,1361.656,0,1400.506,0c35.74,0,72.209,1.172,108.394,3.482,32.892,2.1,66.284,5.189,99.25,9.181,55.521,6.722,110.875,16.1,164.523,27.859,21.078,4.622,41.938,9.628,62,14.879,16.061,4.2,31.643,8.571,46.312,12.98,24.973,7.5,38.88,12.614,39.013,12.663V198.5Z" fill="#fff" stroke="rgba(0,0,0,0)" stroke-miterlimit="10" stroke-width="1"/>
    </g>
  </g>
</svg>
