<svg xmlns="http://www.w3.org/2000/svg" width="1920.5" height="308.282" viewBox="0 0 1920.5 308.282">
  <path id="wave-white" d="M1813.785,24.13c-26.925.02-40.682-6.147-54-12.172C1746.426,5.946,1733.5.076,1707.071.056c-26.427.02-39.35,5.89-52.7,11.9-13.322,6.025-27.074,12.192-54,12.172-26.922.02-40.677-6.147-54-12.172C1533.02,5.946,1520.1.076,1493.67.056c-26.427.02-39.35,5.89-52.7,11.9-13.322,6.025-27.074,12.192-54,12.172-26.92.02-40.674-6.147-53.994-12.172-13.353-6.013-26.276-11.883-52.7-11.9-26.422.02-39.342,5.89-52.7,11.9-13.317,6.025-27.069,12.192-53.986,12.172-26.922.02-40.674-6.147-53.994-12.172-13.355-6.013-26.275-11.883-52.7-11.9-26.427.02-39.348,5.89-52.7,11.9-13.319,6.025-27.074,12.192-54,12.172-26.92.02-40.674-6.147-53.994-12.172C892.851,5.946,879.928.076,853.5.056c-26.425.02-39.345,5.89-52.7,11.9-13.319,6.025-27.072,12.192-53.991,12.172-26.92.02-40.672-6.147-53.991-12.172C679.468,5.946,666.548.076,640.123.056c-26.427.02-39.345,5.89-52.7,11.9-13.319,6.025-27.072,12.192-53.991,12.172-26.92.02-40.672-6.147-53.991-12.172C466.09,5.946,453.17.076,426.745.056c-26.425.02-39.345,5.89-52.7,11.9-13.317,6.025-27.069,12.192-53.988,12.172-26.92.02-40.674-6.147-53.994-12.172C252.712,5.946,239.792.076,213.365.056c-26.425.02-39.345,5.89-52.7,11.9C147.35,17.983,133.6,24.151,106.681,24.13c-26.917.02-40.669-6.147-53.986-12.172C39.342,5.946,26.425.076,0,.056V308.282H1920.5V.056c-26.433.02-39.355,5.89-52.711,11.9-13.324,6.025-27.079,12.192-54,12.172" fill="#fff"/>
</svg>
